<svg width="694" height="439" viewBox="0 0 694 439" fill="none" xmlns="http://www.w3.org/2000/svg">
<path d="M434 425.9C438.8 423.2 444.9 423.1 449.8 425.6C454.7 428.1 458.1 433.2 458.7 438.7C448.6 438.7 438.7 436.3 434 425.9ZM445.8 415.5C452.6 417.7 460.4 416.3 465.9 411.9C471.5 407.5 474.6 400.1 473.9 393.1C461.1 395.6 449.1 401 445.8 415.5Z" fill="#EBEBEB"/>
<path d="M401.8 432.6L402.4 432.3C402.9 432.1 403.5 431.9 404.2 431.7C405.8 431.2 408.1 430.4 411 429.4C416.7 427.4 424.5 424.6 433 420.9C437.2 419 441.2 417.2 444.7 415.4C448.2 413.6 451.4 411.8 453.9 410.2C456.4 408.6 458.5 407.2 459.8 406.2C461.1 405.2 461.8 404.5 461.8 404.5C461.8 404.5 461.7 404.7 461.3 405C461 405.3 460.5 405.8 459.9 406.3C458.6 407.4 456.6 408.8 454.1 410.5C451.5 412.1 448.4 413.9 444.9 415.8C441.3 417.6 437.4 419.5 433.2 421.4C424.7 425.1 416.9 427.9 411.1 429.8C408.2 430.7 405.9 431.5 404.3 431.9C403.5 432.1 402.9 432.3 402.4 432.4C402 432.6 401.8 432.6 401.8 432.6Z" fill="#E0E0E0"/>
<path d="M447 431.7C446.9 431.8 445.8 431 443.8 429.9C441.8 428.8 438.9 427.5 435.5 426.6C432.1 425.7 429 425.3 426.7 425.2C424.4 425.1 423 425.2 423 425.1C423 425.1 423.3 425 424 424.9C424.6 424.8 425.6 424.8 426.7 424.8C429 424.8 432.2 425.1 435.6 426C439 426.9 441.9 428.3 443.9 429.5C444.9 430.1 445.7 430.6 446.2 431C446.7 431.5 447 431.7 447 431.7Z" fill="#E0E0E0"/>
<path d="M208.7 386.8C206.3 393.3 207.3 401 211.4 406.6C215.5 412.2 222.5 415.5 229.4 415.2C227.5 402.5 222.7 390.6 208.7 386.8Z" fill="#EBEBEB"/>
<path d="M206.8 380.6C206.9 380.6 207.2 382 208 384.2C208.7 386.4 209.9 389.4 211.6 392.5C213.3 395.6 215.1 398.2 216.5 400C217.9 401.8 218.9 402.9 218.8 402.9C218.8 402.9 218.5 402.7 218 402.2C217.5 401.7 216.9 401.1 216.1 400.2C214.6 398.4 212.7 395.8 211 392.7C209.3 389.6 208.2 386.5 207.6 384.3C207.3 383.2 207.1 382.3 206.9 381.6C206.8 381 206.7 380.6 206.8 380.6Z" fill="#E0E0E0"/>
<path d="M8.90001 134.4C5.10001 144.4 6.80001 156.3 13.1 165C19.4 173.7 30.3 178.8 41 178.3C38 158.9 30.5 140.4 8.90001 134.4Z" fill="#EBEBEB"/>
<path d="M5.79999 124.9C5.79999 124.9 5.99999 125.4 6.29999 126.4C6.59999 127.4 6.99999 128.8 7.49999 130.5C8.59999 133.9 10.4 138.5 13 143.4C15.6 148.2 18.5 152.3 20.7 155.1C21.8 156.5 22.7 157.6 23.4 158.4C24.1 159.2 24.4 159.6 24.4 159.6L23.3 158.5C22.6 157.8 21.6 156.7 20.5 155.3C18.2 152.5 15.2 148.5 12.6 143.6C9.99999 138.7 8.19999 134.1 7.19999 130.6C6.69999 128.9 6.29999 127.5 6.09999 126.5C5.89999 125.4 5.79999 124.9 5.79999 124.9Z" fill="#E0E0E0"/>
<path d="M42.7 333.5C37.3 337.8 34.3 345 35 351.9C35.7 358.8 40 365.2 46.1 368.5C50.8 356.6 52.7 343.9 42.7 333.5Z" fill="#EBEBEB"/>
<path d="M44.1 327.2C44.2 327.2 43.8 328.6 43.3 330.9C42.8 333.2 42.3 336.3 42.1 339.8C42 343.3 42.2 346.5 42.5 348.8C42.8 351.1 43.1 352.5 43 352.5C43 352.5 42.9 352.2 42.7 351.5C42.5 350.9 42.3 350 42.1 348.8C41.7 346.5 41.4 343.3 41.5 339.7C41.7 336.1 42.2 333 42.8 330.7C43.1 329.6 43.4 328.7 43.6 328.1C43.9 327.5 44.1 327.2 44.1 327.2Z" fill="#E0E0E0"/>
<path d="M215 93.5C221.2 96.6 229 96.3 234.9 92.8C240.9 89.3 244.9 82.7 245.3 75.8C232.6 76.4 220.2 80 215 93.5Z" fill="#EBEBEB"/>
<path d="M208.6 94.8C208.6 94.7 210 94.5 212.3 94C214.6 93.5 217.6 92.7 220.9 91.3C224.2 90 227 88.4 228.9 87.2C230.9 86 232 85.1 232.1 85.2C232.1 85.2 231.9 85.5 231.4 85.9C230.9 86.3 230.1 86.9 229.2 87.5C227.3 88.8 224.5 90.4 221.2 91.8C217.9 93.1 214.8 94 212.5 94.4C211.4 94.6 210.4 94.7 209.8 94.8H208.6Z" fill="#E0E0E0"/>
<path d="M174.2 97.1C183.1 95.2 190.9 88.5 194.2 80C197.5 71.5 196.2 61.3 190.9 53.9C178.3 65 168.5 78.9 174.2 97.1Z" fill="#EBEBEB"/>
<path d="M168.7 103.7C168.7 103.7 169 103.3 169.5 102.7C170.1 102.1 170.9 101.1 171.8 99.9C173.7 97.5 176.2 94.1 178.5 90.1C180.8 86 182.4 82.1 183.3 79.2C183.8 77.8 184.2 76.6 184.4 75.8C184.6 75 184.8 74.5 184.8 74.5C184.8 74.5 184.7 75 184.6 75.8C184.4 76.6 184.1 77.8 183.6 79.3C182.7 82.2 181.1 86.2 178.9 90.3C176.6 94.4 174.1 97.8 172 100.1C171 101.3 170.1 102.2 169.5 102.8C169.1 103.4 168.8 103.7 168.7 103.7Z" fill="#E0E0E0"/>
<path d="M284.4 421.4C286.3 425.1 290.1 427.8 294.3 428.3C298.4 428.8 302.8 427 305.4 423.8C299 419.5 291.7 416.7 284.4 421.4Z" fill="#EBEBEB"/>
<path d="M280.8 419.7C280.9 419.6 283.9 421.3 288 422.3C292.1 423.4 295.6 423.3 295.6 423.4C295.6 423.5 294.7 423.6 293.3 423.5C291.9 423.5 289.9 423.3 287.9 422.7C285.8 422.2 284 421.4 282.8 420.8C281.5 420.3 280.8 419.8 280.8 419.7Z" fill="#E0E0E0"/>
<path d="M392.1 78.3C394.7 81.6 398.9 83.5 403.1 83.1C407.3 82.8 411.2 80.2 413.2 76.5C406.1 73.6 398.4 72.4 392.1 78.3Z" fill="#EBEBEB"/>
<path d="M388.3 77.4C388.3 77.2 391.6 78.4 395.9 78.6C400.1 78.9 403.5 78.1 403.6 78.3C403.6 78.4 402.8 78.6 401.4 78.9C400 79.1 398.1 79.3 395.9 79.2C393.8 79.1 391.8 78.7 390.5 78.3C389.1 77.8 388.3 77.5 388.3 77.4Z" fill="#E0E0E0"/>
<path d="M617.3 93.1C624 94.9 631.5 93.2 636.7 88.6C641.9 84 644.6 76.8 643.6 69.9C631.3 73 619.9 78.9 617.3 93.1Z" fill="#EBEBEB"/>
<path d="M611.3 95.6C611.3 95.5 612.6 95.1 614.8 94.1C616.9 93.2 619.8 91.8 622.7 89.8C625.6 87.9 628.1 85.8 629.8 84.2C631.5 82.6 632.4 81.6 632.5 81.6C632.5 81.6 632.3 81.9 631.9 82.4C631.5 82.9 630.9 83.6 630 84.4C628.4 86.1 625.9 88.2 623 90.2C620 92.2 617.1 93.5 614.9 94.4C613.8 94.8 612.9 95.1 612.3 95.3C611.7 95.6 611.3 95.6 611.3 95.6Z" fill="#E0E0E0"/>
<path d="M641 397.9C652.7 395.2 662.9 386.3 667 375C671.2 363.7 669.3 350.3 662.1 340.6C645.7 355.5 633.1 374 641 397.9Z" fill="#EBEBEB"/>
<path d="M633.9 406.7C633.9 406.7 634.3 406.2 635 405.3C635.7 404.5 636.8 403.2 638.1 401.6C639.4 400 640.8 398.1 642.3 395.9C643.8 393.7 645.3 391.2 646.8 388.5C648.2 385.8 649.5 383.1 650.5 380.7C651.5 378.2 652.3 376 652.9 374.1C653.5 372.2 654 370.6 654.3 369.5C654.6 368.4 654.8 367.8 654.8 367.8C654.8 367.8 654.7 368.4 654.5 369.5C654.3 370.6 653.9 372.2 653.3 374.1C652.7 376 651.9 378.3 651 380.8C650 383.3 648.8 386 647.3 388.7C645.8 391.4 644.3 393.9 642.8 396.1C641.3 398.3 639.8 400.2 638.5 401.8C637.2 403.4 636.1 404.6 635.3 405.4C634.4 406.3 633.9 406.7 633.9 406.7Z" fill="#E0E0E0"/>
<path d="M172.7 35.1C164.8 28.6 151.8 29.6 144.8 37.2C138.8 42.5 140.6 57.6 148.1 64.7C155.6 71.7 169 70.7 175.5 62.8C182.1 54.7 180.6 41.6 172.7 35.1Z" fill="#EBEBEB"/>
<path d="M98.0934 165.229C124.064 160.811 141.537 136.176 137.119 110.205C132.701 84.2341 108.066 66.7619 82.095 71.1797C56.1241 75.5975 38.6519 100.232 43.0697 126.203C47.4876 152.174 72.1225 169.647 98.0934 165.229Z" fill="#EBEBEB"/>
<path d="M162.3 341.8C144.2 319.8 124.6 307.7 106.4 306.1C86.9 304.8 65.7 312.9 56 329.9C46.3 346.9 52.7 372.5 71 379.3C78.5 382.1 87.2 381.8 94.1 385.9C104.8 392.4 107 407 115.1 416.6C125.1 428.3 143.9 430.3 157.2 422.7C170.6 415.1 178.3 399.4 178.4 384C178.7 368.6 172.1 353.7 162.3 341.8Z" fill="#EBEBEB"/>
<path d="M643.631 298.797C670.908 298.191 692.53 275.587 691.924 248.31C691.319 221.032 668.715 199.411 641.438 200.016C614.16 200.622 592.538 223.226 593.144 250.503C593.75 277.781 616.353 299.402 643.631 298.797Z" fill="#EBEBEB"/>
<path d="M505.2 271.8C498.9 236.6 468.6 205.8 432.9 202.9C413.5 201.3 393.9 207.4 374.5 205.1C358.2 203.1 342.8 195 332 182.7C316 164.5 310.6 138.6 293.7 121.3C270.4 97.4 229.6 97 201.2 114.6C172.8 132.2 155.6 163.9 147.8 196.3L147.5 206.2C145.8 239.9 154.6 279 174.2 309C194 339.4 207 351.9 243.1 373.8C273.7 392.4 333.7 400.5 369.5 401.4C405.3 402.3 442.1 391.6 469 368C495.9 344.3 511.5 307 505.2 271.8Z" fill="#E8505B"/>
<path opacity="0.8" d="M505.2 271.8C498.9 236.6 468.6 205.8 432.9 202.9C413.5 201.3 393.9 207.4 374.5 205.1C358.2 203.1 342.8 195 332 182.7C316 164.5 310.6 138.6 293.7 121.3C270.4 97.4 229.6 97 201.2 114.6C172.8 132.2 155.6 163.9 147.8 196.3L147.5 206.2C145.8 239.9 154.6 279 174.2 309C194 339.4 207 351.9 243.1 373.8C273.7 392.4 333.7 400.5 369.5 401.4C405.3 402.3 442.1 391.6 469 368C495.9 344.3 511.5 307 505.2 271.8Z" fill="white"/>
<path d="M540.377 397.691C541.749 388.236 535.196 379.458 525.741 378.086C516.285 376.714 507.508 383.267 506.135 392.722C504.763 402.178 511.316 410.955 520.772 412.327C530.227 413.7 539.005 407.147 540.377 397.691Z" fill="#E8505B"/>
<path opacity="0.8" d="M540.377 397.691C541.749 388.236 535.196 379.458 525.741 378.086C516.285 376.714 507.508 383.267 506.135 392.722C504.763 402.178 511.316 410.955 520.772 412.327C530.227 413.7 539.005 407.147 540.377 397.691Z" fill="white"/>
<path d="M402.2 262.5C402.5 296.9 395 323.3 379.7 341.5C364.4 359.7 343.3 368.9 316.7 369.2C289.9 369.5 268.6 360.6 252.8 342.7C237 324.8 228.9 298.6 228.6 264.2L228 203.6C227.7 169.3 235.2 143 250.5 124.6C265.8 106.3 286.9 97 313.7 96.7C340.4 96.4 361.6 105.3 377.4 123.4C393.2 141.4 401.3 167.6 401.6 201.9L402.2 262.5ZM357.3 195.5C357.1 173.8 353.3 157.8 345.9 147.5C338.5 137.2 327.9 132 313.9 132.2C300 132.3 289.4 137.6 282.3 148.1C275.2 158.6 271.7 174.7 271.9 196.4L272.6 270C272.8 291.8 276.6 307.9 284.1 318.3C291.5 328.7 302.2 333.8 316.2 333.7C330.1 333.6 340.6 328.3 347.7 317.8C354.8 307.3 358.2 291.1 358 269.2L357.3 195.5Z" fill="#E8505B"/>
<path opacity="0.4" d="M402.2 262.5C402.5 296.9 395 323.3 379.7 341.5C364.4 359.7 343.3 368.9 316.7 369.2C289.9 369.5 268.6 360.6 252.8 342.7C237 324.8 228.9 298.6 228.6 264.2L228 203.6C227.7 169.3 235.2 143 250.5 124.6C265.8 106.3 286.9 97 313.7 96.7C340.4 96.4 361.6 105.3 377.4 123.4C393.2 141.4 401.3 167.6 401.6 201.9L402.2 262.5ZM357.3 195.5C357.1 173.8 353.3 157.8 345.9 147.5C338.5 137.2 327.9 132 313.9 132.2C300 132.3 289.4 137.6 282.3 148.1C275.2 158.6 271.7 174.7 271.9 196.4L272.6 270C272.8 291.8 276.6 307.9 284.1 318.3C291.5 328.7 302.2 333.8 316.2 333.7C330.1 333.6 340.6 328.3 347.7 317.8C354.8 307.3 358.2 291.1 358 269.2L357.3 195.5Z" fill="black"/>
<path d="M427.6 262.2C427.9 296.6 420.4 323 405.1 341.2C389.8 359.4 368.7 368.6 342.1 368.9C315.3 369.2 294 360.3 278.2 342.4C262.4 324.5 254.3 298.3 254 263.9L253.4 203.3C253.1 169 260.6 142.7 275.9 124.3C291.2 106 312.3 96.7 339.1 96.4C365.8 96.1 387 105 402.8 123.1C418.6 141.1 426.7 167.3 427 201.6L427.6 262.2ZM382.8 195.3C382.6 173.6 378.8 157.6 371.4 147.3C364 137 353.4 131.8 339.4 132C325.5 132.1 314.9 137.4 307.8 147.9C300.7 158.4 297.2 174.5 297.4 196.2L298.1 269.8C298.3 291.6 302.1 307.7 309.6 318.1C317 328.5 327.7 333.6 341.7 333.5C355.6 333.4 366.1 328.1 373.2 317.6C380.3 307.1 383.7 290.9 383.5 269L382.8 195.3Z" fill="#E8505B"/>
<path d="M253.6 206.9C253.7 207 247.7 209.4 240.4 212.1C233.1 214.9 227.1 217 227 216.9C226.9 216.8 232.9 214.4 240.2 211.7C247.5 208.9 253.5 206.8 253.6 206.9ZM255 230.8C255.1 230.9 249.1 233.3 241.8 236C234.5 238.8 228.5 240.9 228.4 240.8C228.3 240.7 234.3 238.3 241.6 235.6C249 232.8 255 230.7 255 230.8ZM256.5 254.8C256.6 254.9 250.6 257.3 243.3 260C236 262.8 230 264.9 229.9 264.8C229.8 264.7 235.8 262.3 243.1 259.6C250.4 256.8 256.4 254.6 256.5 254.8ZM258 278.7C258.1 278.8 252.1 281.2 244.8 283.9C237.5 286.7 231.5 288.8 231.4 288.7C231.3 288.6 237.3 286.2 244.6 283.5C251.9 280.7 257.9 278.6 258 278.7ZM259.4 302.6C259.4 302.6 259.1 302.8 258.5 303.1C257.9 303.4 257 303.7 255.9 304.2C253.7 305.1 250.7 306.2 247.4 307.5C244.1 308.8 241 309.9 238.8 310.6C237.7 311 236.8 311.3 236.2 311.5C235.6 311.7 235.2 311.8 235.2 311.8C235.2 311.8 235.5 311.6 236.1 311.3C236.7 311 237.6 310.7 238.7 310.2C240.9 309.3 243.9 308.2 247.2 306.9C250.5 305.6 253.6 304.5 255.8 303.8C256.9 303.4 257.8 303.1 258.4 302.9C259.1 302.7 259.4 302.6 259.4 302.6ZM266.3 324.5C266.3 324.6 265.2 325.1 263.3 325.8C261.4 326.6 258.8 327.6 255.9 328.7C253 329.8 250.3 330.8 248.4 331.4C246.5 332.1 245.3 332.5 245.2 332.4C245.2 332.3 246.3 331.8 248.2 331.1C250.1 330.3 252.7 329.3 255.6 328.2C258.5 327.1 261.2 326.1 263.1 325.5C265 324.8 266.2 324.5 266.3 324.5ZM280.9 344.6C280.9 344.7 279.9 345.1 278.2 345.8C276.5 346.5 274.2 347.4 271.6 348.4C269 349.4 266.6 350.2 264.9 350.8C263.2 351.4 262.1 351.7 262.1 351.7C262.1 351.6 263.1 351.2 264.8 350.5C266.5 349.8 268.8 348.9 271.4 347.9C274 346.9 276.4 346.1 278.1 345.5C279.8 344.9 280.9 344.5 280.9 344.6ZM305.2 357.8C305.2 357.9 304.2 358.3 302.5 359C300.8 359.7 298.5 360.6 295.9 361.6C293.3 362.6 290.9 363.4 289.2 364C287.5 364.6 286.4 364.9 286.4 364.9C286.4 364.8 287.4 364.4 289.1 363.7C290.8 363 293.1 362.1 295.7 361.1C298.3 360.1 300.7 359.3 302.4 358.7C304.1 358 305.2 357.7 305.2 357.8ZM378.5 306.7C378.6 306.8 371 310.4 361.5 314.6C352.1 318.8 344.4 322.2 344.3 322C344.2 321.9 351.8 318.3 361.3 314.1C370.8 309.9 378.5 306.6 378.5 306.7ZM383.5 286.2C383.6 286.3 377.3 289.3 369.5 292.8C361.7 296.3 355.3 299 355.3 298.9C355.2 298.8 361.5 295.8 369.3 292.3C377.1 288.8 383.4 286.1 383.5 286.2ZM385.8 263.2C385.9 263.3 379.6 266.3 371.8 269.8C364 273.3 357.6 276 357.6 275.9C357.5 275.8 363.8 272.8 371.6 269.3C379.4 265.8 385.7 263 385.8 263.2ZM388.1 240.1C388.2 240.2 381.9 243.2 374.1 246.7C366.3 250.2 359.9 252.9 359.9 252.8C359.8 252.7 366.1 249.7 373.9 246.2C381.7 242.7 388 240 388.1 240.1ZM390.4 217.1C390.5 217.2 384.2 220.2 376.4 223.7C368.6 227.2 362.2 229.9 362.2 229.8C362.1 229.7 368.4 226.7 376.2 223.2C384 219.7 390.3 217 390.4 217.1ZM385.8 196.6C385.9 196.7 379.6 199.7 371.8 203.2C364 206.7 357.6 209.4 357.6 209.3C357.5 209.2 363.8 206.2 371.6 202.7C379.4 199.2 385.7 196.5 385.8 196.6ZM385.8 174.5C385.9 174.6 379.6 177.6 371.8 181.1C364 184.6 357.6 187.3 357.6 187.2C357.5 187.1 363.8 184.1 371.6 180.6C379.4 177.1 385.7 174.4 385.8 174.5ZM383.5 153.7C383.6 153.8 377.3 156.8 369.5 160.3C361.7 163.8 355.3 166.5 355.3 166.4C355.2 166.3 361.5 163.3 369.3 159.8C377.1 156.3 383.4 153.6 383.5 153.7ZM363.7 139.2C363.8 139.3 360 141.2 355.2 143.3C350.5 145.4 346.6 147.1 346.5 146.9C346.4 146.8 350.2 144.9 355 142.8C359.8 140.7 363.7 139.1 363.7 139.2ZM353.2 130.4C353.3 130.5 349.5 132.4 344.7 134.5C340 136.6 336.1 138.2 336 138.1C335.9 138 339.7 136.1 344.5 134C349.2 131.9 353.1 130.2 353.2 130.4ZM254.7 177.9C254.8 178 248.8 180.4 241.5 183.1C234.2 185.9 228.2 188 228.1 187.9C228 187.8 234 185.4 241.3 182.7C248.6 179.9 254.6 177.8 254.7 177.9ZM262 148.1C262.1 148.2 255.6 150.8 247.7 153.8C239.7 156.8 233.2 159.1 233.2 159C233.1 158.9 239.6 156.3 247.5 153.3C255.5 150.2 262 147.9 262 148.1ZM281.3 118.5C281.4 118.6 273.2 121.8 263.1 125.6C253 129.4 244.8 132.3 244.8 132.2C244.7 132.1 252.9 128.9 263 125.1C273 121.4 281.2 118.4 281.3 118.5Z" fill="#E8505B"/>
<path d="M423.3 307C423.3 307 423.2 307 422.9 306.9C422.6 306.8 422.2 306.6 421.7 306.4C421.2 306.2 420.5 306.1 419.7 305.8C418.9 305.7 417.9 305.5 416.9 305.5C412.6 305.2 406.2 306.8 400 311.4C396.9 313.6 393.9 316.7 391.1 320.2C388.2 323.7 385.4 327.7 382.2 331.7C379 335.7 375.3 339.7 370.7 342.9C366.1 346 360.6 348.3 354.8 349.4C349 350.5 343 350.2 337.6 348.8C332.2 347.5 327.2 345.4 322.5 343.2C317.9 341 313.5 338.9 309.4 337C305.3 335.2 301.2 333.8 297.5 332.9C293.7 332 290.3 331.7 287.2 331.7C284.1 331.7 281.5 332.2 279.4 332.8C277.3 333.4 275.8 334.1 274.8 334.6C274.3 334.9 273.9 335.1 273.7 335.2C274 335 274.3 334.8 274.8 334.5C275.8 333.9 277.3 333.3 279.4 332.6C281.5 332 284.1 331.5 287.2 331.4C290.3 331.3 293.8 331.7 297.6 332.5C301.4 333.4 305.4 334.7 309.6 336.5C313.8 338.3 318.1 340.5 322.8 342.6C327.4 344.7 332.4 346.8 337.8 348.1C343.2 349.4 349 349.7 354.8 348.7C360.6 347.7 366 345.4 370.5 342.3C375.1 339.2 378.7 335.2 381.9 331.3C385.1 327.3 387.9 323.4 390.8 319.8C393.7 316.3 396.7 313.2 399.8 310.9C406.1 306.3 412.6 304.7 416.9 305.1C418 305.1 418.9 305.4 419.8 305.5C420.6 305.7 421.3 305.9 421.8 306.1C422.3 306.3 422.7 306.5 423 306.6C423.2 307 423.3 307 423.3 307ZM429.6 240.3C429.6 240.4 428.9 240.4 427.7 240.9C426.5 241.3 424.8 242.1 422.9 243.5C421 244.8 418.9 246.7 416.5 248.6C414.1 250.5 411.1 252.3 407.9 253.9C401.4 257 394.9 258.2 390.2 258.5C389 258.6 388 258.6 387 258.6C386.1 258.6 385.3 258.5 384.6 258.5C384 258.4 383.5 258.4 383.1 258.3C382.8 258.3 382.6 258.2 382.6 258.2H383.1C383.5 258.2 384 258.2 384.6 258.3H387C387.9 258.3 389 258.3 390.1 258.1C394.7 257.8 401.2 256.5 407.6 253.4C410.8 251.9 413.7 250.1 416.1 248.2C418.5 246.3 420.6 244.5 422.6 243.2C424.5 241.9 426.3 241.1 427.6 240.7C428.2 240.5 428.7 240.4 429.1 240.4C429.4 240.3 429.6 240.3 429.6 240.3ZM299 263.5C299 263.5 298.8 263.5 298.5 263.4C298.1 263.3 297.6 263.2 296.9 263.1C295.6 262.7 293.7 262 291.5 260.8C289.4 259.6 287 257.8 284.5 255.7C282 253.6 279.3 251.3 276.2 249.1C273.1 247 269.9 245.5 266.7 244.8C263.6 244 260.6 243.9 258.2 244C255.8 244.1 253.8 244.5 252.5 244.9C251.2 245.2 250.5 245.5 250.4 245.4C250.4 245.4 250.6 245.3 250.9 245.2C251.2 245.1 251.7 244.9 252.4 244.7C253.7 244.3 255.7 243.8 258.2 243.7C260.7 243.5 263.7 243.6 266.8 244.4C270 245.1 273.4 246.6 276.5 248.8C279.6 251 282.3 253.3 284.8 255.4C287.3 257.5 289.6 259.3 291.7 260.6C293.8 261.9 295.6 262.6 296.9 263.1C298.3 263.2 299 263.4 299 263.5ZM299.2 168.9C299.2 168.9 298.6 169.1 297.5 169.5C297 169.7 296.3 169.9 295.5 170.1C294.7 170.3 293.8 170.6 292.8 170.7C291.8 170.9 290.7 171.1 289.5 171.3C288.3 171.5 287 171.6 285.7 171.7C283 171.9 280 171.9 276.9 171.6C273.8 171.3 270.9 170.7 268.2 170.1C266.9 169.7 265.7 169.4 264.5 169C263.4 168.6 262.3 168.2 261.4 167.8C260.4 167.4 259.6 167 258.9 166.7C258.2 166.4 257.5 166 257 165.7L255.5 164.8C255.5 164.8 256.1 165 257.1 165.5C257.6 165.8 258.2 166.1 259 166.4C259.7 166.7 260.6 167.1 261.5 167.5C262.4 167.9 263.5 168.3 264.6 168.6C265.7 169 267 169.3 268.3 169.7C270.9 170.3 273.8 170.9 276.9 171.2C280 171.5 282.9 171.5 285.6 171.3C286.9 171.2 288.2 171.1 289.4 170.9C290.6 170.8 291.7 170.6 292.7 170.4C293.7 170.2 294.6 170 295.4 169.8C296.2 169.6 296.9 169.5 297.4 169.3C298.5 169.1 299.2 168.9 299.2 168.9ZM423.9 168.7L423.5 168.5C423.2 168.3 422.8 168.1 422.3 167.8C421.8 167.5 421.2 167.1 420.4 166.8C419.7 166.4 418.8 166 417.9 165.6L416.4 165C415.9 164.8 415.3 164.6 414.7 164.4C413.6 164 412.3 163.7 411 163.3C408.3 162.7 405.3 162.3 402.2 162.3C399 162.3 396 162.6 393.4 163.2C392.1 163.5 390.8 163.8 389.6 164.2C389 164.4 388.5 164.5 387.9 164.7L386.4 165.3C385.4 165.6 384.6 166.1 383.8 166.4C383 166.7 382.4 167.1 381.9 167.4C381.4 167.7 381 167.9 380.7 168C380.4 168.1 380.3 168.2 380.3 168.2C380.3 168.2 380.4 168.1 380.7 167.9C381 167.7 381.4 167.5 381.8 167.2C382.3 166.9 382.9 166.5 383.6 166.1C384.3 165.7 385.2 165.2 386.1 164.9L387.6 164.3C388.1 164.1 388.7 163.9 389.3 163.7C390.5 163.3 391.7 163 393.1 162.7C395.8 162.1 398.9 161.8 402.1 161.8C405.3 161.8 408.3 162.3 411 162.9C412.3 163.3 413.6 163.6 414.8 164C415.4 164.2 415.9 164.4 416.5 164.6C417 164.8 417.5 165.1 418 165.3C419 165.7 419.8 166.2 420.5 166.6C421.2 167 421.8 167.4 422.3 167.7C422.7 168 423.1 168.2 423.4 168.5C423.8 168.6 424 168.7 423.9 168.7ZM362.8 100.8C362.8 100.8 362.6 101 362.1 101.2C361.6 101.5 360.9 101.9 360 102.3C358.2 103.3 355.5 104.7 352.1 106.4C345.4 109.7 336 114.2 324.8 117.1C319.2 118.5 313.8 119.2 308.8 119.3C303.8 119.4 299.3 119 295.7 118.2C292 117.4 289.1 116.4 287.2 115.6C286.2 115.2 285.5 114.8 285 114.6C284.5 114.4 284.2 114.2 284.3 114.2C284.3 114.2 284.6 114.3 285.1 114.5C285.6 114.7 286.3 115.1 287.3 115.4C289.2 116.2 292.1 117.1 295.8 117.8C299.5 118.5 303.9 118.9 308.8 118.8C313.7 118.7 319.1 117.9 324.7 116.6C335.8 113.8 345.2 109.3 351.9 106.1C355.2 104.5 357.9 103.1 359.9 102.2C360.8 101.8 361.5 101.4 362.1 101.1C362.5 100.9 362.8 100.7 362.8 100.8Z" fill="white"/>
<path d="M162.1 275L195.5 276.5L194 311.9L160.6 310.4L158 369.3L114 367.4L116.6 308.5L3 303.5L3.1 276.5L124.1 102.7L169.5 104.7L162.1 275ZM47 270L118 273.1L122.7 165.7L121.6 165.3L117.6 173L47 270Z" fill="#E8505B"/>
<path d="M162.1 275L195.5 276.5L194 311.9L160.6 310.4L158 369.3L114 367.4L116.6 308.5L3 303.5L3.1 276.5L124.1 102.7L169.5 104.7L162.1 275ZM47 270L118 273.1L122.7 165.7L121.6 165.3L117.6 173L47 270Z" fill="#513138"/>
<path d="M190 276.2L223.4 277.7L221.9 313.1L188.5 311.6L185.9 370.5L141.9 368.6L144.5 309.7L30.9 304.7L31 277.7L152 104L197.4 106L190 276.2ZM75 271.2L146 274.3L150.7 166.9L149.6 166.5L145.6 174.2L75 271.2Z" fill="#422C34"/>
<path d="M31.6 282.9C31.6 282.9 31.2 283.1 30.5 283.5C29.8 283.9 28.8 284.4 27.5 285C24.9 286.2 21.3 287.8 17.3 289.5C13.3 291.2 9.59998 292.6 6.99998 293.6C5.69998 294.1 4.59998 294.5 3.79998 294.8C2.99998 295.1 2.59998 295.2 2.59998 295.2C2.59998 295.2 2.99998 295 3.69998 294.7C4.49998 294.3 5.59998 293.9 6.79998 293.4C9.49998 292.3 13.1 290.8 17.1 289.1C21 287.4 24.6 285.9 27.3 284.7C28.5 284.2 29.6 283.7 30.4 283.4C31.2 283 31.6 282.9 31.6 282.9ZM47.9 253C47.9 253 47.4 253.3 46.4 253.8C45.4 254.3 44 255 42.2 255.8C38.6 257.4 33.7 259.6 28.2 261.9C22.7 264.2 17.7 266.3 14 267.7C12.2 268.4 10.7 269 9.69998 269.3C8.69998 269.7 8.09998 269.9 8.09998 269.8C8.09998 269.8 8.59998 269.5 9.59998 269.1C10.7 268.6 12.1 268 13.9 267.3C17.6 265.8 22.5 263.7 28 261.4C33.5 259.1 38.4 257 42.1 255.4C43.8 254.7 45.3 254 46.4 253.6C47.3 253.2 47.9 252.9 47.9 253ZM67.7 226.3C67.7 226.3 67.2 226.6 66.1 227.1C65.1 227.6 63.6 228.3 61.7 229.1C58 230.7 52.8 232.9 47.1 235.2C41.4 237.5 36.1 239.6 32.3 241C30.4 241.7 28.9 242.3 27.8 242.6C26.7 243 26.1 243.2 26.1 243.1C26.1 243.1 26.7 242.8 27.7 242.4C28.8 241.9 30.3 241.3 32.2 240.6C36 239.1 41.2 237 46.9 234.7C52.6 232.4 57.8 230.3 61.6 228.7C63.4 228 64.9 227.3 66.1 226.9C67.1 226.5 67.7 226.2 67.7 226.3ZM147.3 257.1C147.3 257.1 146.9 257.3 146.2 257.7C145.5 258 144.4 258.5 143.2 259.1C140.6 260.3 137 261.8 133 263.4C129 265 125.3 266.4 122.7 267.4C121.4 267.9 120.3 268.3 119.5 268.5C118.7 268.7 118.3 268.9 118.3 268.8C118.3 268.8 118.7 268.6 119.4 268.3C120.2 268 121.3 267.5 122.5 267C125.2 265.9 128.8 264.5 132.8 262.9C136.7 261.3 140.3 259.8 143 258.7C144.2 258.2 145.3 257.8 146.1 257.4L147.3 257.1ZM144.1 312.1C144.1 312.1 143.7 312.3 143 312.7C142.3 313 141.3 313.5 140.1 314.1C137.6 315.3 134.1 316.8 130.2 318.4C126.3 320 122.8 321.4 120.2 322.4C118.9 322.9 117.9 323.3 117.1 323.5C116.4 323.7 116 323.9 115.9 323.8C115.9 323.8 116.3 323.6 117 323.3C117.8 323 118.8 322.5 120 322C122.7 320.9 126.1 319.5 130 317.9C133.8 316.3 137.3 314.8 139.9 313.7C141.1 313.2 142.1 312.8 142.9 312.4C143.7 312.2 144.1 312 144.1 312.1ZM143.6 331.3C143.6 331.3 143.2 331.5 142.5 331.9C141.8 332.2 140.8 332.7 139.6 333.3C137.1 334.5 133.6 336 129.7 337.6C125.8 339.2 122.3 340.6 119.7 341.6C118.4 342.1 117.4 342.5 116.6 342.7C115.9 342.9 115.5 343.1 115.4 343C115.3 342.9 115.8 342.8 116.5 342.5C117.3 342.2 118.3 341.7 119.5 341.2C122.2 340.1 125.6 338.7 129.5 337.1C133.3 335.5 136.8 334 139.4 332.9C140.6 332.4 141.6 332 142.4 331.6L143.6 331.3ZM143.2 350.6C143.2 350.6 142.8 350.8 142.1 351.2C141.4 351.5 140.4 352 139.2 352.6C136.7 353.8 133.2 355.3 129.3 356.9C125.4 358.5 121.9 359.9 119.3 360.9C118 361.4 117 361.8 116.2 362C115.5 362.2 115.1 362.4 115 362.3C115 362.3 115.4 362.1 116.1 361.8C116.9 361.5 117.9 361 119.1 360.5C121.8 359.4 125.2 358 129.1 356.4C132.9 354.8 136.4 353.3 139 352.2C140.2 351.7 141.2 351.3 142 350.9C142.7 350.7 143.2 350.5 143.2 350.6ZM147.8 236.8C147.8 236.8 147.4 237 146.7 237.4C146 237.7 144.9 238.2 143.7 238.8C141.1 240 137.5 241.5 133.5 243.1C129.5 244.7 125.8 246.1 123.2 247.1C121.9 247.6 120.8 248 120 248.2C119.2 248.4 118.8 248.6 118.8 248.5C118.8 248.4 119.2 248.3 119.9 248C120.7 247.7 121.8 247.2 123 246.7C125.7 245.6 129.3 244.2 133.3 242.6C137.2 241 140.8 239.5 143.5 238.4C144.7 237.9 145.8 237.5 146.6 237.1C147.4 236.9 147.8 236.7 147.8 236.8ZM148.4 216.4C148.4 216.4 148 216.6 147.3 217C146.6 217.3 145.5 217.8 144.3 218.4C141.7 219.6 138.1 221.1 134.1 222.7C130.1 224.3 126.4 225.7 123.8 226.7C122.5 227.2 121.4 227.6 120.6 227.8C119.8 228 119.4 228.2 119.4 228.1C119.4 228.1 119.8 227.9 120.5 227.6C121.3 227.3 122.4 226.8 123.6 226.3C126.3 225.2 129.9 223.8 133.9 222.2C137.8 220.6 141.4 219.1 144.1 218C145.3 217.5 146.4 217.1 147.2 216.7C147.9 216.5 148.4 216.4 148.4 216.4ZM148.9 196.1C148.9 196.1 148.5 196.3 147.9 196.7C147.2 197 146.2 197.5 145 198.1C142.5 199.2 139.1 200.7 135.3 202.3C131.5 203.8 128 205.2 125.4 206.1C124.1 206.6 123.1 206.9 122.4 207.1C121.7 207.3 121.3 207.4 121.3 207.4C121.3 207.4 121.7 207.2 122.4 206.9C123.2 206.6 124.2 206.2 125.4 205.7C128 204.7 131.4 203.3 135.2 201.8C139 200.3 142.3 198.9 145 197.8C146.2 197.3 147.2 196.9 148 196.6C148.5 196.2 148.9 196.1 148.9 196.1ZM151.2 177.1C151.3 177.2 149 178.2 146.2 179.2C143.4 180.2 141.1 181 141 180.8C141 180.7 143.2 179.7 146 178.7C148.8 177.7 151.1 176.9 151.2 177.1ZM87.6 198.6C87.6 198.6 87.1 198.9 86 199.4C85 199.9 83.5 200.6 81.6 201.4C77.9 203 72.7 205.2 67 207.5C61.3 209.8 56 211.9 52.2 213.3C50.3 214 48.8 214.6 47.7 214.9C46.6 215.3 46 215.5 46 215.4C46 215.4 46.6 215.1 47.6 214.7C48.7 214.2 50.2 213.6 52.1 212.9C55.9 211.4 61.1 209.3 66.8 207C72.5 204.7 77.7 202.6 81.5 201C83.3 200.3 84.8 199.6 86 199.2C87 198.8 87.6 198.6 87.6 198.6ZM107.4 170.9C107.4 170.9 106.9 171.2 105.8 171.7C104.8 172.2 103.3 172.9 101.4 173.7C97.7 175.3 92.5 177.5 86.8 179.8C81.1 182.1 75.8 184.2 72 185.6C70.1 186.3 68.6 186.9 67.5 187.2C66.4 187.6 65.8 187.8 65.8 187.7C65.8 187.7 66.4 187.4 67.4 187C68.5 186.5 70 185.9 71.9 185.2C75.7 183.7 80.9 181.6 86.6 179.3C92.3 177 97.5 174.9 101.3 173.3C103.1 172.6 104.6 171.9 105.8 171.5C106.8 171.1 107.4 170.9 107.4 170.9ZM125.7 143.2C125.7 143.2 125.2 143.5 124.1 144C123.1 144.5 121.6 145.2 119.7 146C116 147.6 110.8 149.8 105.1 152.1C99.4 154.4 94.1 156.5 90.3 157.9C88.4 158.6 86.9 159.2 85.8 159.5C84.7 159.9 84.1 160.1 84.1 160C84.1 160 84.7 159.7 85.7 159.3C86.8 158.8 88.3 158.2 90.2 157.5C94 156 99.2 153.9 104.9 151.6C110.6 149.3 115.8 147.2 119.6 145.6C121.4 144.9 122.9 144.2 124.1 143.8C125.1 143.4 125.7 143.2 125.7 143.2ZM144.8 116.6C144.8 116.6 144.3 116.9 143.2 117.4C142.2 117.9 140.7 118.6 138.8 119.4C135.1 121 129.9 123.2 124.2 125.5C118.5 127.8 113.2 129.9 109.4 131.3C107.5 132 106 132.6 104.9 132.9C103.8 133.3 103.2 133.5 103.2 133.4C103.2 133.4 103.8 133.1 104.8 132.7C105.9 132.2 107.4 131.6 109.3 130.9C113.1 129.4 118.3 127.3 124 125C129.7 122.7 134.9 120.6 138.7 119C140.5 118.3 142 117.6 143.2 117.2C144.2 116.8 144.8 116.6 144.8 116.6Z" fill="#E8505B"/>
<path d="M195.4 157.3C195.4 157.3 195.2 157.5 194.8 158L193 159.8C191.4 161.2 188.8 163.2 185.2 164.8C181.6 166.4 177 167.7 171.8 167.8C169.2 167.9 166.5 167.6 163.7 166.9C160.9 166.2 158.2 165.1 155.5 163.8C150.1 161.2 145.3 158.1 140.7 155.9C136.1 153.7 131.5 152.6 127.6 152.5C123.7 152.4 120.6 153.2 118.7 154.2C117.7 154.7 117 155.1 116.5 155.4C116 155.7 115.8 155.9 115.8 155.9C115.8 155.9 116 155.7 116.5 155.3C116.9 154.9 117.7 154.5 118.6 154C120.5 153 123.7 152 127.6 152.1C131.5 152.2 136.2 153.3 140.9 155.5C145.6 157.6 150.4 160.7 155.8 163.3C158.5 164.6 161.2 165.7 163.9 166.3C166.6 167 169.3 167.3 171.9 167.2C177 167.1 181.6 165.9 185.1 164.3C188.6 162.7 191.2 160.9 192.9 159.5C193.8 158.8 194.4 158.2 194.8 157.8C195.2 157.5 195.4 157.3 195.4 157.3ZM181.5 107.8C181.5 107.8 181.1 108.1 180.2 108.5C179.4 109 178.1 109.5 176.6 110.2C175 110.9 173.1 111.6 171 112.2C168.9 112.8 166.5 113.4 163.9 113.8C161.3 114.2 158.9 114.4 156.7 114.5C154.5 114.6 152.4 114.5 150.8 114.4C149.1 114.3 147.8 114.1 146.8 113.9C145.9 113.7 145.4 113.6 145.4 113.6C145.4 113.6 145.9 113.6 146.9 113.7C147.8 113.8 149.2 113.9 150.9 114C152.6 114.1 154.6 114.1 156.8 114C159 113.9 161.5 113.7 164 113.3C166.5 112.9 168.9 112.3 171 111.7C173.1 111.1 175 110.4 176.6 109.8C178.2 109.2 179.4 108.7 180.3 108.3C181 108 181.5 107.8 181.5 107.8ZM110.5 218.9C110.5 218.9 110.2 218.6 109.6 217.9C109 217.2 108.2 216.2 107.2 215.1C105.2 212.7 102.3 209.6 98.8 206.3C97.1 204.7 95.3 203.3 93.6 202.3C91.8 201.3 90.1 200.6 88.6 200.4C85.6 199.8 83.6 200.5 83.6 200.4C83.6 200.4 83.7 200.3 83.9 200.3C84.1 200.2 84.5 200.1 84.9 200.1C85.8 200 87.1 199.9 88.6 200.1C90.2 200.4 92 201 93.8 202C95.6 203 97.4 204.4 99.2 206.1C102.7 209.3 105.5 212.6 107.5 215C108.5 216.2 109.2 217.2 109.7 217.9C110.3 218.5 110.6 218.9 110.5 218.9ZM190.3 249.1C190.3 249.1 190.2 249.2 189.9 249.4C189.6 249.6 189.2 249.9 188.7 250.2C187.7 250.8 186.1 251.7 184 252.4C179.9 254 173.7 255.1 167.1 253.7C160.5 252.3 155.2 248.9 152.1 245.8C150.5 244.3 149.4 242.9 148.7 241.9C148.3 241.4 148.1 241 147.9 240.7C147.7 240.4 147.6 240.3 147.7 240.3L148.9 241.8C149.7 242.8 150.8 244.1 152.4 245.5C155.6 248.4 160.8 251.8 167.3 253.1C173.8 254.4 179.9 253.4 184 251.9C186 251.2 187.6 250.4 188.7 249.8C189.7 249.4 190.3 249.1 190.3 249.1ZM219.4 312.4C219.4 312.4 219.3 312.2 219.1 311.9C218.9 311.6 218.6 311.1 218.3 310.5C217.7 309.3 216.5 307.5 214.9 305.4C214.5 304.9 214 304.4 213.5 303.8C213.3 303.5 213 303.2 212.8 302.9C212.5 302.6 212.2 302.4 212 302.1L210.2 300.3C209.5 299.7 208.8 299.2 208.1 298.6C205.1 296.3 201.5 293.9 197.1 292.1C192.7 290.3 187.6 288.9 182.1 288.6C176.5 288.3 170.5 289.1 164.7 291.4C158.9 293.7 153.2 297.2 147.2 300.5C144.2 302.2 141.1 303.8 137.8 305.2C134.5 306.5 131 307.6 127.3 307.9C123.7 308.3 120 308 116.5 307.2C113 306.5 109.7 305.2 106.6 303.8C100.3 300.9 94.8 297.2 89.7 293.5C84.6 289.8 79.7 286.3 74.9 283.5C70.1 280.7 65.3 278.5 60.7 277.4C56.1 276.3 51.7 276.1 48 276.6C44.2 277 41.1 278.1 38.8 279.3C36.4 280.5 34.8 281.9 33.8 282.7L32.7 283.8C33 283.5 33.3 283.1 33.8 282.6C34.9 281.7 36.4 280.3 38.8 279C41.2 277.8 44.3 276.7 48.1 276.2C51.9 275.7 56.3 275.9 60.9 277C65.6 278.1 70.4 280.3 75.3 283.1C80.2 285.9 85 289.4 90.2 293.1C95.3 296.7 100.8 300.5 107 303.3C110.1 304.7 113.4 305.9 116.8 306.7C120.2 307.4 123.8 307.8 127.4 307.3C131 306.9 134.4 305.9 137.7 304.6C141 303.3 144.1 301.6 147 300C153 296.7 158.6 293.2 164.5 290.9C166 290.4 167.5 289.8 169 289.5C169.7 289.3 170.5 289.1 171.2 288.9C172 288.8 172.7 288.7 173.4 288.5C176.4 288 179.3 288 182.1 288.1C187.7 288.4 192.9 289.8 197.3 291.7C201.7 293.6 205.4 296 208.3 298.3L210.4 300.1L212.2 301.9L213 302.7C213.2 303 213.5 303.3 213.7 303.6C214.2 304.2 214.6 304.7 215 305.2C216.6 307.3 217.7 309.1 218.4 310.3C218.7 310.9 219 311.4 219.2 311.7C219.4 312.2 219.4 312.4 219.4 312.4ZM189.2 354.2C189.2 354.2 189 354.3 188.7 354.3C188.3 354.4 187.8 354.5 187.2 354.6C186.6 354.7 185.8 354.9 184.8 354.9C183.9 355 182.8 355.1 181.7 355.2C181.1 355.2 180.5 355.3 179.9 355.3H177.9C176.5 355.3 175.1 355.2 173.5 355C170.4 354.7 167.1 354.1 163.6 353.1C160.2 352.1 157 350.8 154.2 349.4C152.8 348.7 151.5 348 150.4 347.3C149.8 346.9 149.2 346.6 148.7 346.2C148.2 345.8 147.7 345.5 147.2 345.1C146.2 344.5 145.4 343.8 144.7 343.2C144 342.6 143.4 342.1 142.9 341.6C142.5 341.2 142.1 340.8 141.8 340.6L141.4 340.2C141.4 340.2 141.6 340.3 141.8 340.5C142.1 340.8 142.5 341.1 143 341.5C143.5 341.9 144.1 342.4 144.8 343C145.5 343.5 146.4 344.2 147.3 344.8C147.8 345.1 148.3 345.5 148.8 345.8C149.3 346.2 149.9 346.5 150.5 346.8C151.7 347.5 153 348.2 154.3 348.9C157.1 350.2 160.2 351.5 163.6 352.5C167 353.5 170.3 354.1 173.4 354.4C174.9 354.5 176.4 354.7 177.7 354.7C178.4 354.7 179 354.8 179.7 354.7H181.5C182.7 354.7 183.7 354.6 184.6 354.5C185.5 354.4 186.3 354.3 187 354.2C187.6 354.1 188.1 354.1 188.5 354C189 354.2 189.2 354.2 189.2 354.2Z" fill="white"/>
<path d="M596.3 275.4L629.6 272.1L633.1 307.4L599.8 310.7L605.5 369.3L561.7 373.6L556 315L442.9 326.1L439.2 299.4L534.5 110.3L579.7 105.9L596.3 275.4ZM481.7 286.6L552.5 279.7L542 172.7L540.9 172.4L538 180.5L481.7 286.6Z" fill="#E8505B"/>
<path d="M596.3 275.4L629.6 272.1L633.1 307.4L599.8 310.7L605.5 369.3L561.7 373.6L556 315L442.9 326.1L439.2 299.4L534.5 110.3L579.7 105.9L596.3 275.4ZM481.7 286.6L552.5 279.7L542 172.7L540.9 172.4L538 180.5L481.7 286.6Z" fill="#513138"/>
<path d="M624.2 272.7L657.5 269.4L661 304.7L627.7 308L633.4 366.6L589.6 370.9L583.9 312.3L470.8 323.4L467.1 296.7L562.4 107.6L607.6 103.2L624.2 272.7ZM509.6 283.9L580.4 277L569.9 170L568.8 169.7L565.9 177.8L509.6 283.9Z" fill="#422C34"/>
<path d="M468.3 301.6C468.3 301.6 468 301.9 467.3 302.4C466.6 302.9 465.7 303.5 464.5 304.3C462.1 305.9 458.8 308 455.1 310.2C451.4 312.4 448 314.4 445.5 315.8C444.3 316.5 443.2 317 442.5 317.4C441.8 317.8 441.4 317.9 441.4 317.9C441.4 317.9 441.7 317.6 442.4 317.2C443.2 316.7 444.1 316.2 445.3 315.5C447.8 314 451.2 312 454.9 309.8C458.6 307.6 461.9 305.6 464.4 304C465.5 303.3 466.5 302.7 467.3 302.3C467.9 301.8 468.2 301.6 468.3 301.6ZM480.2 269.7C480.2 269.7 479.7 270.1 478.8 270.7C477.9 271.3 476.6 272.2 474.9 273.2C471.6 275.3 467 278.2 461.9 281.2C456.8 284.3 452.1 287 448.7 288.9C447 289.9 445.6 290.6 444.6 291.1C443.6 291.6 443.1 291.9 443.1 291.8C443.1 291.8 443.6 291.4 444.5 290.9C445.5 290.3 446.9 289.5 448.5 288.5C451.9 286.4 456.5 283.7 461.6 280.6C466.7 277.5 471.3 274.8 474.7 272.7C476.3 271.7 477.7 270.9 478.7 270.3C479.6 269.9 480.1 269.6 480.2 269.7ZM496.1 240.4C496.1 240.4 495.6 240.8 494.7 241.4C493.7 242 492.4 242.9 490.6 244C487.1 246.1 482.3 249 477 252.1C471.6 255.2 466.7 258 463.2 259.9C461.4 260.9 460 261.6 459 262.2L457.4 263C457.4 263 457.9 262.6 458.9 262.1C460 261.5 461.4 260.7 463.1 259.7C466.7 257.6 471.5 254.8 476.8 251.8C482.1 248.7 486.9 245.9 490.5 243.8C492.2 242.8 493.6 242 494.7 241.4C495.5 240.7 496.1 240.4 496.1 240.4ZM579.2 259.8C579.2 259.8 578.9 260.1 578.2 260.5C577.5 260.9 576.6 261.6 575.4 262.3C573 263.8 569.7 265.9 565.9 268C562.2 270.2 558.7 272.1 556.2 273.4C554.9 274.1 553.9 274.6 553.2 274.9C552.5 275.3 552.1 275.4 552.1 275.4C552.1 275.4 552.5 275.1 553.1 274.7C553.9 274.2 554.9 273.7 556 273C558.6 271.5 561.9 269.6 565.6 267.5C569.3 265.3 572.6 263.4 575.1 261.9C576.3 261.2 577.2 260.7 578 260.2C578.8 259.9 579.2 259.7 579.2 259.8ZM583.7 314.6C583.7 314.6 583.4 314.9 582.7 315.3C582.1 315.7 581.1 316.4 580 317.1C577.7 318.6 574.5 320.6 570.8 322.8C567.2 325 563.9 326.8 561.4 328.1C560.2 328.8 559.2 329.3 558.5 329.6C557.8 329.9 557.4 330.1 557.4 330.1C557.4 330.1 557.7 329.8 558.4 329.4C559.2 328.9 560.1 328.4 561.2 327.7C563.7 326.2 566.9 324.3 570.5 322.2C574.1 320.1 577.3 318.1 579.7 316.6C580.8 315.9 581.8 315.4 582.5 314.9C583.3 314.8 583.7 314.6 583.7 314.6ZM586 333.8C586 333.8 585.7 334.1 585 334.5C584.4 334.9 583.4 335.6 582.3 336.3C580 337.8 576.8 339.8 573.1 342C569.5 344.2 566.2 346 563.7 347.3C562.5 348 561.5 348.5 560.8 348.8C560.1 349.1 559.7 349.3 559.7 349.3C559.7 349.3 560 349 560.7 348.6C561.5 348.1 562.4 347.6 563.5 346.9C566 345.4 569.2 343.5 572.8 341.4C576.4 339.3 579.6 337.3 582 335.8C583.1 335.1 584.1 334.6 584.8 334.1C585.6 333.9 586 333.7 586 333.8ZM588.2 352.9C588.2 352.9 587.9 353.2 587.2 353.6C586.6 354 585.6 354.7 584.5 355.4C582.2 356.9 579 358.9 575.3 361.1C571.7 363.3 568.4 365.1 565.9 366.4C564.7 367.1 563.7 367.6 563 367.9C562.3 368.2 561.9 368.4 561.9 368.4C561.9 368.4 562.2 368.1 562.9 367.7C563.7 367.2 564.6 366.7 565.7 366C568.2 364.5 571.4 362.6 575 360.5C578.6 358.4 581.8 356.4 584.2 354.9C585.3 354.2 586.3 353.7 587 353.2C587.8 353.1 588.2 352.9 588.2 352.9ZM576.9 239.6C576.9 239.6 576.6 239.9 575.9 240.3C575.2 240.7 574.3 241.4 573.1 242.1C570.7 243.6 567.4 245.7 563.6 247.8C559.9 250 556.4 251.9 553.9 253.2C552.6 253.9 551.6 254.4 550.9 254.7C550.2 255.1 549.8 255.2 549.8 255.2C549.8 255.2 550.2 254.9 550.8 254.5C551.6 254 552.6 253.5 553.7 252.8C556.3 251.3 559.6 249.4 563.3 247.3C567 245.1 570.3 243.2 572.8 241.7C574 241 574.9 240.5 575.7 240C576.5 239.7 576.9 239.5 576.9 239.6ZM574.5 219.4C574.5 219.4 574.2 219.7 573.5 220.1C572.8 220.5 571.9 221.2 570.7 221.9C568.3 223.4 565 225.5 561.2 227.6C557.5 229.8 554 231.7 551.5 233C550.2 233.7 549.2 234.2 548.5 234.5C547.8 234.9 547.4 235 547.4 235C547.4 235 547.8 234.7 548.4 234.3C549.2 233.8 550.2 233.3 551.3 232.6C553.9 231.1 557.2 229.2 560.9 227.1C564.6 224.9 567.9 223 570.4 221.5C571.6 220.8 572.5 220.3 573.3 219.8C574.1 219.5 574.5 219.3 574.5 219.4ZM572.2 199.1C572.2 199.1 571.9 199.4 571.3 199.8C570.7 200.2 569.8 200.8 568.6 201.5C566.3 202.9 563.1 204.9 559.6 207C556 209.1 552.8 210.9 550.4 212.1C549.2 212.7 548.2 213.2 547.6 213.6C546.9 213.9 546.5 214.1 546.5 214.1C546.5 214.1 546.8 213.8 547.5 213.5C548.2 213.1 549.2 212.5 550.3 211.9C552.7 210.5 555.9 208.7 559.4 206.7C562.9 204.6 566.1 202.8 568.5 201.4C569.6 200.8 570.5 200.2 571.3 199.8C571.8 199.3 572.2 199.1 572.2 199.1ZM571.8 180C571.9 180.1 569.8 181.4 567.1 182.8C564.5 184.2 562.3 185.3 562.2 185.2C562.1 185.1 564.2 183.8 566.9 182.4C569.5 180.9 571.7 179.9 571.8 180ZM511.8 210.2C511.8 210.2 511.3 210.6 510.4 211.2C509.4 211.8 508.1 212.7 506.3 213.8C502.8 215.9 498 218.8 492.7 221.9C487.3 225 482.4 227.8 478.9 229.7C477.1 230.7 475.7 231.4 474.7 232L473.1 232.8C473.1 232.8 473.6 232.4 474.6 231.9C475.7 231.3 477.1 230.5 478.8 229.5C482.4 227.4 487.2 224.6 492.5 221.6C497.8 218.5 502.6 215.7 506.2 213.6C507.9 212.6 509.3 211.8 510.4 211.2C511.3 210.5 511.8 210.2 511.8 210.2ZM527.6 180C527.6 180 527.1 180.4 526.2 181C525.2 181.6 523.9 182.5 522.1 183.6C518.6 185.7 513.8 188.6 508.5 191.7C503.1 194.8 498.2 197.6 494.7 199.5C492.9 200.5 491.5 201.2 490.5 201.8L488.9 202.6C488.9 202.6 489.4 202.2 490.4 201.7C491.5 201.1 492.9 200.3 494.6 199.3C498.2 197.2 503 194.4 508.3 191.4C513.6 188.3 518.4 185.5 522 183.4C523.7 182.4 525.1 181.6 526.2 181C527 180.3 527.6 180 527.6 180ZM541.8 150.1C541.8 150.1 541.3 150.5 540.4 151.1C539.4 151.7 538.1 152.6 536.3 153.7C532.8 155.8 528 158.7 522.7 161.8C517.3 164.9 512.4 167.7 508.9 169.6C507.1 170.6 505.7 171.3 504.7 171.9L503.1 172.7C503.1 172.7 503.6 172.3 504.6 171.8C505.7 171.2 507.1 170.4 508.8 169.4C512.4 167.3 517.2 164.5 522.5 161.5C527.8 158.4 532.6 155.6 536.2 153.5C537.9 152.5 539.3 151.7 540.4 151.1C541.3 150.3 541.8 150 541.8 150.1ZM557 121C557 121 556.5 121.4 555.6 122C554.6 122.6 553.3 123.5 551.5 124.6C548 126.7 543.2 129.6 537.9 132.7C532.5 135.8 527.6 138.6 524.1 140.5C522.3 141.5 520.9 142.2 519.9 142.8L518.3 143.6C518.3 143.6 518.8 143.2 519.8 142.7C520.9 142.1 522.3 141.3 524 140.3C527.6 138.2 532.4 135.4 537.7 132.4C543 129.3 547.8 126.5 551.4 124.4C553.1 123.4 554.5 122.6 555.6 122C556.4 121.3 556.9 121 557 121Z" fill="#E8505B"/>
<path d="M612.8 154.2C612.8 154.2 612.6 154.5 612.3 154.9C612 155.4 611.5 156.1 610.8 156.9C609.4 158.6 607.1 160.8 603.8 163C600.5 165.1 596.1 167 591 167.9C588.4 168.3 585.7 168.4 582.9 168.1C580.1 167.8 577.2 167.1 574.4 166.2C568.7 164.4 563.5 162 558.6 160.5C553.7 159 549 158.5 545.2 159C541.3 159.4 538.4 160.7 536.6 161.9C535.7 162.5 535 163 534.6 163.4C534.2 163.8 533.9 164 533.9 164L534.5 163.4C534.9 163 535.5 162.4 536.4 161.8C538.2 160.5 541.2 159.2 545.1 158.7C549 158.2 553.8 158.6 558.7 160.1C563.7 161.6 568.9 163.9 574.5 165.8C577.3 166.7 580.1 167.4 582.9 167.7C585.7 168 588.4 167.9 590.9 167.5C596 166.7 600.3 164.8 603.6 162.8C606.9 160.7 609.2 158.5 610.6 156.9C611.3 156.1 611.9 155.4 612.2 155C612.6 154.4 612.8 154.2 612.8 154.2ZM592.1 107.2C592.1 107.2 591.7 107.6 590.9 108.1C590.1 108.7 589 109.4 587.5 110.3C586.1 111.2 584.3 112.1 582.2 113.1C580.2 114 577.9 114.9 575.4 115.7C572.9 116.5 570.5 117 568.3 117.4C566.1 117.8 564.1 118 562.4 118.1C560.7 118.2 559.3 118.2 558.4 118.2C557.5 118.2 556.9 118.1 556.9 118.1C556.9 118.1 557.4 118 558.4 118C559.3 118 560.7 117.9 562.4 117.7C564.1 117.6 566.1 117.3 568.2 116.9C570.4 116.5 572.8 115.9 575.2 115.2C577.6 114.4 579.9 113.5 582 112.6C584 111.7 585.8 110.8 587.3 109.9C588.8 109.1 589.9 108.4 590.7 107.9C591.6 107.4 592.1 107.1 592.1 107.2ZM537.4 227.1C537.4 227.1 537 226.8 536.4 226.2C535.7 225.6 534.8 224.7 533.7 223.7C531.4 221.7 528.1 218.9 524.2 216.2C522.3 214.9 520.3 213.7 518.4 212.9C516.5 212.1 514.7 211.8 513.2 211.7C510.1 211.5 508.3 212.5 508.3 212.4C508.3 212.4 508.4 212.3 508.6 212.2C508.8 212.1 509.1 212 509.5 211.8C510.3 211.5 511.6 211.3 513.2 211.3C514.8 211.3 516.7 211.7 518.6 212.4C520.5 213.2 522.5 214.3 524.5 215.7C528.4 218.4 531.7 221.2 534 223.3L536.6 225.9C537.1 226.7 537.4 227.1 537.4 227.1ZM620.6 245.8C620.6 245.8 620.5 245.9 620.3 246.2C620.1 246.4 619.7 246.7 619.2 247.1C618.3 247.9 616.8 248.9 614.9 250C611.1 252.1 605.1 254.1 598.3 253.7C591.5 253.3 585.8 250.6 582.3 248C580.5 246.7 579.2 245.5 578.4 244.6C578 244.2 577.7 243.8 577.5 243.6C577.3 243.4 577.2 243.2 577.2 243.2C577.2 243.2 577.7 243.7 578.6 244.5C579.5 245.3 580.8 246.5 582.6 247.7C586.1 250.2 591.8 252.8 598.4 253.2C605 253.6 610.9 251.7 614.8 249.7C616.7 248.7 618.2 247.7 619.2 247C620.1 246.2 620.6 245.8 620.6 245.8ZM658.4 304.4C658.4 304.4 658.3 304.3 658.1 304C657.9 303.7 657.5 303.3 657.1 302.7C656.3 301.6 654.9 300 653 298.2C652.5 297.8 652 297.3 651.4 296.8C651.1 296.6 650.8 296.3 650.6 296C650.3 295.8 650 295.5 649.6 295.3C648.9 294.8 648.3 294.3 647.6 293.8C646.9 293.3 646.1 292.9 645.3 292.4C642 290.5 638.1 288.7 633.5 287.5C628.9 286.3 623.7 285.7 618.1 286.2C612.5 286.7 606.7 288.4 601.2 291.4C595.7 294.5 590.6 298.7 585.2 302.9C582.5 305 579.6 307 576.6 308.8C573.5 310.6 570.2 312.1 566.6 313C563 313.9 559.4 314.1 555.8 313.9C552.2 313.7 548.8 312.9 545.5 311.9C538.9 310 532.9 307 527.3 304.1C521.7 301.2 516.4 298.4 511.2 296.3C506 294.2 501 292.7 496.3 292.3C491.6 291.9 487.2 292.3 483.6 293.3C479.9 294.2 477 295.7 474.8 297.2C472.6 298.7 471.2 300.3 470.3 301.3C469.9 301.8 469.6 302.3 469.3 302.6C469.1 302.9 469 303 469 303C469 303 469.1 302.8 469.3 302.5C469.5 302.2 469.8 301.8 470.2 301.2C471.1 300.1 472.4 298.5 474.7 297C476.9 295.4 479.8 293.9 483.5 292.9C487.2 291.9 491.5 291.4 496.3 291.9C501.1 292.3 506.2 293.8 511.4 295.9C516.6 298 521.9 300.8 527.5 303.7C533.1 306.6 539 309.5 545.6 311.4C548.9 312.4 552.3 313.1 555.8 313.3C559.3 313.5 562.9 313.4 566.4 312.4C569.9 311.5 573.2 310 576.2 308.3C579.2 306.5 582.1 304.5 584.8 302.4C590.2 298.2 595.4 294 600.9 290.9C602.3 290.2 603.7 289.4 605.1 288.8L607.2 287.9C607.9 287.7 608.6 287.4 609.4 287.2C612.3 286.3 615.2 285.9 618 285.6C623.6 285.1 628.9 285.8 633.5 287C638.1 288.2 642.1 290.1 645.3 292C646.1 292.5 646.9 293 647.6 293.5C648.3 294 649 294.5 649.6 295C649.9 295.2 650.2 295.5 650.6 295.7C650.9 296 651.2 296.2 651.4 296.5C651.9 297 652.5 297.5 653 297.9C654.9 299.8 656.3 301.4 657 302.5C657.4 303.1 657.7 303.5 657.9 303.8C658.3 304.2 658.4 304.4 658.4 304.4ZM634.3 350C634.3 350 634.1 350.1 633.8 350.2C633.4 350.3 632.9 350.5 632.4 350.7C631.8 350.9 631 351.2 630.1 351.4C629.2 351.6 628.2 351.9 627 352.1L625.2 352.4C624.6 352.5 623.9 352.6 623.2 352.7C621.8 352.9 620.4 353 618.8 353.1C615.7 353.2 612.3 353.1 608.8 352.6C605.3 352.1 602 351.2 599 350.3C597.5 349.8 596.2 349.3 594.9 348.7C594.3 348.4 593.7 348.2 593.1 347.9C592.5 347.6 592 347.3 591.5 347.1C590.4 346.6 589.6 346 588.8 345.6C588 345.1 587.3 344.7 586.8 344.3C586.3 344 585.9 343.7 585.6 343.4C585.3 343.2 585.2 343.1 585.2 343.1C585.2 343.1 585.4 343.2 585.7 343.3C586 343.5 586.5 343.8 587 344.1C587.5 344.5 588.2 344.9 589 345.3C589.8 345.7 590.7 346.3 591.8 346.8C592.3 347.1 592.9 347.3 593.4 347.6C594 347.9 594.6 348.1 595.2 348.4C596.4 349 597.8 349.4 599.3 349.9C602.2 350.8 605.5 351.7 609 352.2C612.5 352.7 615.9 352.8 618.9 352.7C620.4 352.6 621.9 352.6 623.2 352.4C623.9 352.3 624.5 352.3 625.2 352.2L627 351.9C628.2 351.7 629.2 351.5 630.1 351.3C631 351.1 631.8 350.9 632.4 350.7C633 350.5 633.5 350.4 633.8 350.3C634.1 350 634.3 350 634.3 350Z" fill="white"/>
<g opacity="0.5">
<path d="M373.3 292C373.3 292 373.2 292.1 372.9 292.3C372.7 292.5 372.3 292.8 371.8 293.1C370.8 293.8 369.4 294.6 367.5 295.4C363.7 297 357.8 298.3 351.5 296.9C345.2 295.5 340.3 291.9 337.6 288.9C336.2 287.4 335.2 286 334.6 285C334.3 284.5 334.1 284.1 333.9 283.8C333.8 283.5 333.7 283.4 333.7 283.4C333.7 283.4 334.1 283.9 334.7 284.9C335.3 285.9 336.3 287.2 337.8 288.7C340.6 291.7 345.4 295.1 351.6 296.5C357.8 297.8 363.6 296.7 367.4 295.2C369.3 294.4 370.8 293.6 371.8 293C372.8 292.3 373.3 291.9 373.3 292Z" fill="#263238"/>
</g>
<g opacity="0.5">
<path d="M359.6 190.5C359.6 190.5 359.6 190.6 359.7 190.7C359.7 190.9 359.8 191.1 359.9 191.4C360.1 192 360.3 192.9 360.5 194.1C361 196.5 361.7 200 361.9 204.3C362 206.5 361.9 208.9 361.5 211.4C361 213.9 360.1 216.6 358.7 219.1C357.2 221.6 355.1 223.9 352.8 226C350.4 228.1 347.8 230 345.2 232.1C339.6 236.3 334.1 240.2 329.2 243.6C324.3 247.1 320 250.2 316.5 252.8L316.4 252.9L316.3 252.8C313.2 250.3 310.9 248.1 309.4 246.6C308.6 245.8 308.1 245.1 307.8 244.7C307.6 244.5 307.5 244.3 307.4 244.2C307.3 244.1 307.3 244 307.3 244C307.3 244 307.5 244.2 307.8 244.7C308.2 245.1 308.7 245.8 309.5 246.5C311 248 313.4 250.2 316.5 252.6H316.3C319.7 249.9 324 246.8 328.9 243.3C333.8 239.8 339.3 236 344.9 231.7C347.5 229.7 350.1 227.7 352.5 225.7C354.8 223.6 356.9 221.4 358.4 219C359.9 216.6 360.8 214 361.2 211.5C361.7 209 361.7 206.6 361.7 204.4C361.5 200.1 360.9 196.6 360.4 194.2C360.2 193 360 192.1 359.9 191.4C359.8 191.1 359.8 190.9 359.8 190.7C359.6 190.6 359.6 190.5 359.6 190.5Z" fill="#263238"/>
</g>
<path d="M473.9 109.8C473.9 109.8 473.7 110.1 473.4 110.6C473 111.1 472.5 111.8 471.8 112.6C470.4 114.2 468.5 116.4 466.2 118.7C465.1 119.8 464 121.1 462.5 121.5C461.8 121.7 461 121.7 460.4 121.5C459.8 121.2 459.3 120.7 459 120.3C458.5 119.3 458.6 118.3 458.6 117.8C458.7 117.2 458.8 116.9 458.8 116.9V117.8C458.8 118.4 458.8 119.3 459.3 120.1C459.6 120.5 460 120.9 460.5 121.1C461 121.3 461.7 121.3 462.3 121.1C463.6 120.7 464.6 119.5 465.8 118.4C468.1 116.1 470.1 113.9 471.5 112.4C472.9 110.8 473.8 109.8 473.9 109.8Z" fill="#EB996E"/>
<path d="M481.5 109.9C481.5 109.9 481.3 110.2 480.9 110.7C480.5 111.2 479.9 111.9 479.1 112.7C478.3 113.6 477.4 114.5 476.4 115.6C475.9 116.1 475.4 116.7 474.8 117.3C474.2 117.9 473.6 118.5 472.9 119C472.2 119.5 471.3 119.9 470.5 120C469.6 120.1 468.7 119.7 468.2 119C468 118.7 467.8 118.2 467.8 117.8C467.8 117.4 468 117 468.1 116.7C468.5 116.1 468.8 115.6 469.2 115.2C469.9 114.3 470.4 113.6 470.8 113.1C471.2 112.6 471.4 112.3 471.4 112.4C471.4 112.4 471.3 112.7 470.9 113.3C470.6 113.8 470.1 114.6 469.4 115.5C469.1 116 468.7 116.5 468.4 117C468.1 117.5 468 118.2 468.4 118.7C468.8 119.2 469.5 119.5 470.2 119.5C470.9 119.4 471.7 119.1 472.4 118.6C473.1 118.1 473.7 117.5 474.2 116.9C474.8 116.3 475.3 115.8 475.8 115.2C476.8 114.2 477.7 113.2 478.6 112.4L480.5 110.5C481 110 481.5 109.8 481.5 109.9Z" fill="#EB996E"/>
<path d="M585.9 416C587.6 412.3 591.2 409.5 595.3 408.8C599.3 408.1 603.7 409.5 606.5 412.4C604.6 415.9 601.1 418.2 597.3 419.5C592.9 421 588.1 419.2 585.9 416Z" fill="#E8505B"/>
<path d="M578.8 417.6C578.8 417.5 579.9 417.1 581.7 416.7C583.5 416.3 586 415.8 588.8 415.3C591.6 414.8 594.1 414.5 596 414.3C597.8 414.1 599 414 599 414.1C599 414.2 597.9 414.4 596.1 414.7C594.1 415 591.7 415.4 589 415.9C586.2 416.4 583.7 416.8 581.9 417.1C579.9 417.4 578.8 417.7 578.8 417.6Z" fill="#263238"/>
<path d="M228.5 352.7C232.7 356.2 235.1 361.9 234.5 367.3C233.9 372.8 230.4 377.8 225.5 380.3C221.8 371 220.4 360.8 228.5 352.7ZM242.4 359.9C242.8 367 246.9 373.8 253.1 377.4C259.2 381 267.2 381.2 273.6 378.1C266.5 367 257.1 357.7 242.4 359.9Z" fill="#E8505B"/>
<path d="M210.5 325.1L211 325.6C211.3 326 211.7 326.5 212.2 327.1C213.3 328.4 214.8 330.3 216.8 332.6C220.7 337.2 226.2 343.5 232.7 350C236 353.3 239.1 356.3 242.1 358.9C245.1 361.5 247.9 363.8 250.3 365.7C252.7 367.5 254.7 368.9 256.2 369.7C257.6 370.6 258.5 370.9 258.5 371C258.5 371 258.3 370.9 257.9 370.8C257.5 370.6 256.9 370.4 256.1 369.9C254.6 369.1 252.5 367.8 250.1 366C247.7 364.2 244.9 361.9 241.8 359.3C238.8 356.7 235.6 353.6 232.3 350.4C225.8 343.9 220.3 337.5 216.5 332.9C214.6 330.6 213.1 328.6 212.1 327.3C211.6 326.7 211.2 326.1 210.9 325.7C210.6 325.3 210.5 325.1 210.5 325.1Z" fill="#263238"/>
<path d="M227.7 366.9C227.6 366.9 227.9 365.5 228.2 363.2C228.5 360.9 228.7 357.8 228.3 354.3C227.9 350.8 227.1 347.8 226.4 345.6C225.7 343.4 225 342.1 225.1 342.1C225.1 342.1 225.3 342.4 225.6 343C225.9 343.6 226.3 344.4 226.7 345.5C227.5 347.6 228.4 350.8 228.8 354.3C229.2 357.8 228.9 361 228.5 363.3C228.3 364.4 228.1 365.4 227.9 366C227.9 366.6 227.7 366.9 227.7 366.9Z" fill="#263238"/>
<path d="M669 164.5C666.5 161.2 665.8 156.7 667.1 152.8C668.4 148.9 671.7 145.8 675.6 144.6C677.7 148 678.1 152.1 677.5 156.1C676.7 160.8 672.9 164.2 669 164.5Z" fill="#E8505B"/>
<path d="M667.1 171.6C667 171.6 667.2 170.4 667.7 168.6C668.2 166.8 668.9 164.3 669.8 161.7C670.7 159 671.6 156.6 672.3 154.9C673 153.2 673.5 152.1 673.5 152.2C673.6 152.2 673.2 153.3 672.6 155.1C671.9 157 671.1 159.4 670.2 161.9L667.9 168.8C667.5 170.5 667.2 171.6 667.1 171.6Z" fill="#263238"/>
<path d="M624.9 238.9C622.8 231.3 624.8 222.7 629.9 216.6C635 210.6 643.2 207.3 651.1 208.1C652.5 215.7 650.1 223.4 646.2 230C641.5 237.8 632.1 241.1 624.9 238.9Z" fill="#E8505B"/>
<path d="M595.4 268.5C595.4 268.5 595.5 268.3 595.8 268C596.1 267.6 596.6 267.1 597.1 266.5C598.2 265.2 599.9 263.4 602 261.2C606.2 256.8 612.1 250.8 618.6 244.2C625.1 237.6 631.1 231.7 635.4 227.4C637.5 225.3 639.3 223.6 640.5 222.4C641.1 221.8 641.6 221.4 641.9 221C642.2 220.7 642.4 220.5 642.4 220.6C642.4 220.7 642.3 220.8 642 221.1C641.7 221.5 641.2 221.9 640.7 222.5C639.5 223.8 637.8 225.5 635.7 227.7C631.4 232.1 625.5 238 619 244.6C612.5 251.2 606.6 257.1 602.3 261.5C600.2 263.6 598.5 265.4 597.3 266.6L595.9 268C595.6 268.4 595.4 268.5 595.4 268.5Z" fill="#263238"/>
<path opacity="0.3" d="M624.9 238.9C622.8 231.3 624.8 222.7 629.9 216.6C635 210.6 643.2 207.3 651.1 208.1C652.5 215.7 650.1 223.4 646.2 230C641.5 237.8 632.1 241.1 624.9 238.9Z" fill="black"/>
<path d="M611.3 241.9C607 239.7 603.9 235.2 603.3 230.4C602.7 225.6 604.6 220.5 608.2 217.3C612.2 219.8 614.8 224.1 616.1 228.6C617.6 233.9 615.3 239.5 611.3 241.9Z" fill="#E8505B"/>
<path opacity="0.3" d="M611.3 241.9C607 239.7 603.9 235.2 603.3 230.4C602.7 225.6 604.6 220.5 608.2 217.3C612.2 219.8 614.8 224.1 616.1 228.6C617.6 233.9 615.3 239.5 611.3 241.9Z" fill="black"/>
<path d="M612.9 250.4L612.6 249.5C612.4 248.9 612.2 248 612 246.9C611.6 244.7 611.1 241.7 610.7 238.4C610.3 235.1 610 232 609.9 229.8C609.7 227.6 609.7 226.2 609.8 226.2C609.9 226.2 610.1 227.5 610.3 229.7C610.6 232 610.9 235 611.3 238.2C611.7 241.5 612.1 244.5 612.4 246.7C612.7 249.1 612.9 250.4 612.9 250.4Z" fill="#263238"/>
<path d="M424 357.8C427 350.6 433.9 345.2 441.6 343.8C449.3 342.4 457.6 345.1 463 350.8C451.6 359.5 438.4 365.5 424 357.8Z" fill="#E8505B"/>
<path opacity="0.3" d="M424 357.8C427 350.6 433.9 345.2 441.6 343.8C449.3 342.4 457.6 345.1 463 350.8C451.6 359.5 438.4 365.5 424 357.8Z" fill="black"/>
<path d="M417.6 361.3C417.6 361.3 417.9 361 418.5 360.6C419.1 360.2 420 359.6 421.1 358.9C423.4 357.6 426.6 356 430.4 354.7C434.2 353.4 437.8 352.8 440.4 352.5C441.7 352.4 442.8 352.3 443.5 352.3H444.6C444.6 352.4 443 352.5 440.4 352.9C437.8 353.3 434.3 354 430.5 355.2C426.7 356.4 423.5 358 421.2 359.2C419 360.5 417.7 361.4 417.6 361.3Z" fill="#263238"/>
<path d="M160.4 227.5C165.9 225 172.6 225.3 177.7 228.5C182.8 231.7 186.2 237.5 186.4 243.5C175.4 242.7 164.7 239.3 160.4 227.5Z" fill="#E8505B"/>
<path opacity="0.3" d="M160.4 227.5C165.9 225 172.6 225.3 177.7 228.5C182.8 231.7 186.2 237.5 186.4 243.5C175.4 242.7 164.7 239.3 160.4 227.5Z" fill="black"/>
<path d="M154.9 226.2H155.8C156.4 226.3 157.2 226.4 158.2 226.6C160.2 227 162.9 227.8 165.7 229C168.5 230.3 170.9 231.7 172.6 232.9C173.4 233.5 174.1 234 174.5 234.4L175.1 235C175 235.1 174.1 234.3 172.4 233.2C170.7 232.1 168.3 230.7 165.5 229.4C162.7 228.2 160 227.4 158.1 226.9C156.2 226.5 154.9 226.3 154.9 226.2Z" fill="#263238"/>
<path d="M518.8 345.6C518.2 340.2 520.4 334.6 524.5 331.1C528.6 327.6 534.5 326.4 539.7 327.9C535.9 337.1 530 345.2 518.8 345.6Z" fill="#E8505B"/>
<path d="M516.1 349.9C516 349.9 516.5 348.8 517.3 347.2C518.2 345.6 519.6 343.5 521.4 341.5C523.3 339.4 525.2 337.8 526.7 336.8C528.2 335.7 529.2 335.2 529.2 335.3C529.2 335.4 528.3 336 526.9 337.1C525.5 338.2 523.6 339.9 521.8 341.9C520 343.9 518.5 346 517.6 347.5C516.7 348.9 516.2 349.9 516.1 349.9Z" fill="#263238"/>
<path d="M597.5 293.6C595.9 288.5 597 282.5 600.4 278.3C603.8 274.1 609.4 271.8 614.7 272.3C612.7 282.1 608.4 291.2 597.5 293.6Z" fill="#E8505B"/>
<path opacity="0.3" d="M597.5 293.6C595.9 288.5 597 282.5 600.4 278.3C603.8 274.1 609.4 271.8 614.7 272.3C612.7 282.1 608.4 291.2 597.5 293.6Z" fill="black"/>
<path d="M595.7 298.3C595.6 298.3 595.9 297.2 596.4 295.5C597 293.8 598 291.5 599.4 289.1C600.8 286.7 602.4 284.8 603.7 283.4C605 282.1 605.8 281.4 605.9 281.4C606 281.5 605.2 282.3 604 283.6C602.8 285 601.3 286.9 599.9 289.3C598.5 291.6 597.5 293.9 596.8 295.6C596.1 297.3 595.8 298.4 595.7 298.3Z" fill="#263238"/>
<path d="M4.30005 222.1C5.50005 216.8 9.40005 212.3 14.5 210.4C19.5 208.5 25.5001 209.3 29.9001 212.4C23.2001 219.8 15 225.5 4.30005 222.1Z" fill="#E8505B"/>
<path d="M0.400024 225.3C0.400024 225.3 1.10002 224.4 2.50002 223.2C3.90002 222 5.90002 220.5 8.30002 219.2C10.7 217.9 13.1 217 14.8 216.5C16.5 216 17.7 215.8 17.7 215.9C17.7 216 16.6 216.3 14.9 216.9C13.2 217.5 10.9 218.4 8.50002 219.7C6.10002 221 4.10002 222.5 2.70002 223.6C1.30002 224.6 0.400024 225.4 0.400024 225.3Z" fill="#263238"/>
<path d="M515.3 157.9C515.3 157.9 519.6 146.9 521.5 142.9C523.4 138.9 523 126.7 521.7 124.5C520.5 122.3 521.6 120.6 521.6 120.6C521.6 120.6 528 108.7 525 105.8L523.3 105.6C523.3 105.6 516.9 118.3 516.7 118.6C516.5 118.9 515.1 118.9 514.6 116.7C514.2 114.5 515.2 107.9 515.2 107.9C515.2 107.9 517.6 103.7 517.8 100.8C517.9 99.7 516.9 98.2 516 97.5L515.1 96.8C515.1 96.8 509.7 106.5 509.5 108.8C509.2 111.2 508.2 116.3 508.2 116.3L507.5 115.7L507.4 103.8C507.4 103.8 510.1 93.7 508 91.6C506 89.4 505.8 91.2 505.8 91.2C505.8 91.2 502 101.5 501.7 104.1C501.6 105.2 501.5 115.4 501.5 115.4L499.9 114.7L499.3 105.2C499.3 105.2 501.2 95.7 498.3 94.8L496 94.7C496 94.7 493.8 107.2 493.6 107.7C493.4 108.3 495.3 122.5 495.3 122.5L494.7 123.8L493 121.5C493 121.5 492.3 119.3 488.9 117.5C485.6 115.7 484.1 117 484.1 117L488.3 124.4C488.3 124.4 492.1 133.1 493.6 135.1C495.2 137.1 500.5 141.8 501.3 142.2C502.1 142.7 501.2 146.5 501.2 146.5L499.9 149.2L515.3 157.9Z" fill="#FFBE9D"/>
<path d="M498.6 128.8C498.6 128.9 499.9 128.9 502 129.4C504.1 129.9 506.8 131 509.2 133.2C511.6 135.4 512.9 138.1 513.6 140.1C514.3 142.1 514.3 143.5 514.5 143.5C514.6 143.5 514.7 142.1 514.1 140C513.6 137.9 512.2 135 509.7 132.7C506.3 130 503.5 128.9 502.1 128.9C500 128.5 498.6 128.8 498.6 128.8ZM498.1 115.2C498.1 115.4 503.1 114.6 509 116.2C514.9 117.7 518.9 120.8 519 120.6C519.1 120.5 518.1 119.7 516.4 118.6C514.7 117.5 512.1 116.3 509.1 115.5C506.1 114.7 503.3 114.6 501.2 114.7C499.3 114.8 498.1 115.2 498.1 115.2Z" fill="#EB996E"/>
<path d="M515.3 157.9C514.9 158.9 493.9 222.5 484.8 229.3C475.7 236.1 415.8 253.7 415.8 253.7L406.4 221.8L465.1 203.4L501.5 142.5L515.3 157.9Z" fill="#FFBE9D"/>
<path d="M402.5 213L447.8 205.2L457.5 244.6L405.1 256.6L402.5 213Z" fill="#FF7D66"/>
<path d="M374.1 216.1L376.8 146.6C376.9 129.3 387.1 114.9 404.3 115.5L405.9 115.6C422 117.1 434.2 130.6 434 146.7C433.8 161.7 433.5 178.3 432.6 186.2C430.9 202.7 414.1 203.8 414.1 203.8L409 224.4L403.1 226.3L374.1 216.1Z" fill="#FFBE9D"/>
<path d="M414.1 203.9C414.1 203.9 403.6 203.6 393.2 195.6C393.2 195.6 396.2 208.9 412.9 208.9L414.1 203.9Z" fill="#EB996E"/>
<path d="M425.6 160.3C425.5 161.6 424.4 162.5 423.1 162.5C421.8 162.4 420.8 161.4 420.9 160.1C421 158.8 422.1 157.9 423.4 157.9C424.7 158 425.7 159 425.6 160.3ZM429.8 153.8C429.5 154.1 427.8 152.6 425.3 152.4C422.8 152.1 420.8 153.3 420.5 152.9C420.4 152.8 420.7 152.2 421.6 151.7C422.5 151.2 423.9 150.7 425.5 150.9C427.1 151.1 428.4 151.8 429.1 152.4C429.7 153.1 429.9 153.7 429.8 153.8ZM405.5 159.8C405.2 160.1 403.5 158.6 401 158.4C398.5 158.1 396.5 159.3 396.2 158.9C396.1 158.7 396.4 158.2 397.3 157.7C398.2 157.2 399.6 156.7 401.2 156.9C402.8 157.1 404.1 157.8 404.8 158.4C405.5 159.1 405.7 159.7 405.5 159.8ZM412.1 172.5C412.1 172.4 413.7 172.2 416.3 172.1C417 172.1 417.6 172 417.7 171.6C417.9 171.1 417.7 170.4 417.4 169.6C416.9 168 416.4 166.3 415.9 164.5C413.9 157.2 412.5 151.3 412.8 151.2C413.1 151.1 415 157 417 164.2C417.5 166 417.9 167.7 418.4 169.3C418.6 170.1 418.9 170.9 418.5 171.9C418.3 172.4 417.8 172.7 417.3 172.8C416.9 172.9 416.5 172.9 416.2 172.9C413.7 172.7 412.1 172.6 412.1 172.5ZM407.7 153.1C407.3 153.7 404.9 152.8 401.9 152.5C398.9 152.1 396.4 152.4 396.1 151.7C396 151.4 396.6 150.8 397.7 150.4C398.8 150 400.4 149.7 402.2 149.9C404 150.1 405.5 150.8 406.5 151.5C407.4 152.2 407.8 152.8 407.7 153.1ZM430.4 147.4C429.8 147.9 427.8 147.2 425.3 147C422.8 146.7 420.7 147 420.2 146.4C420 146.1 420.4 145.5 421.3 145.1C422.2 144.6 423.8 144.3 425.5 144.5C427.2 144.7 428.7 145.3 429.5 146C430.4 146.5 430.6 147.1 430.4 147.4Z" fill="#263238"/>
<path d="M376.9 159C376.6 158.9 365.8 154.6 365.2 165.9C364.5 177.2 376 175.6 376.1 175.3C376.1 175 376.9 159 376.9 159Z" fill="#FFBE9D"/>
<path d="M372.9 170.8C372.9 170.8 372.7 170.9 372.4 171.1C372.1 171.2 371.5 171.3 370.9 171C369.7 170.5 368.8 168.5 368.9 166.5C368.9 165.5 369.2 164.5 369.6 163.7C370 162.9 370.6 162.3 371.2 162.3C371.8 162.2 372.2 162.6 372.3 162.9C372.4 163.2 372.3 163.4 372.4 163.5C372.4 163.5 372.7 163.3 372.6 162.9C372.6 162.7 372.4 162.4 372.2 162.2C371.9 162 371.5 161.8 371.1 161.8C370.2 161.8 369.4 162.6 368.9 163.4C368.4 164.3 368.1 165.4 368 166.5C367.9 168.8 369 171 370.6 171.6C371.4 171.9 372.1 171.7 372.4 171.4C372.9 171 372.9 170.8 372.9 170.8Z" fill="#EB996E"/>
<path d="M404.1 173.6C404.5 173.6 404.4 176.2 406.5 178.2C408.6 180.2 411.4 180 411.4 180.4C411.4 180.6 410.8 180.9 409.6 180.9C408.4 180.9 406.8 180.4 405.5 179.2C404.2 178 403.7 176.5 403.6 175.4C403.6 174.2 403.9 173.6 404.1 173.6ZM457.6 133.1C457.5 132.4 457 131.8 456.4 131.5C455.1 130.7 453.6 130.7 452.2 130.5C448.6 130.2 445.1 129.1 442 127.3C443.2 126.8 444.2 126.2 445.2 125.3C447.1 123.6 448.4 120.9 447.7 118.4C447.6 117.9 447.3 117.4 446.9 117.3C446.2 117 445.5 117.7 444.9 118.3C443.1 120.1 441.5 120.8 439 120.4C437.4 120.1 436 119.7 434.8 118.9C434.8 118.8 434.7 118.8 434.7 118.7C434.1 118.1 433.6 117.4 433.1 116.8C429.1 112.3 425.6 109.1 421.9 107.4C416.5 104.8 407.3 103.4 401.4 104.5C395.5 105.7 390.1 110 388.9 115.9C385.8 113 381 112.7 376.9 114H376.8C372.3 115.3 369.5 119.8 368 124.2C367.9 124.4 367.8 124.7 367.8 124.9C366.2 127.2 364 129.1 361.5 130.3C361.1 130.5 360.6 130.8 360.5 131.3C360.4 131.8 360.8 132.2 361.2 132.5C362.2 133.3 363.4 133.9 364.7 134.2C364.2 135.2 363.7 136.2 363.1 137.2C362.6 138 361.9 139 362.3 139.9C362.6 140.6 363.4 140.9 364.2 140.9C365 140.8 365.6 140.5 366.3 140.1C365.7 141.2 365.2 142.4 364.6 143.5C366.2 143.9 367.8 143.8 369.4 143.5C370.1 147.7 370.3 155.5 371.2 158.4C374.2 158.6 375 158.4 376.4 159C378.3 159.8 377.4 163.2 380 162.4C381.3 162 383.6 157.2 384.2 155.9C387.6 147.3 389.2 137.9 388.7 128.7C390.6 126.9 392.9 125.4 395.4 124.5L395.2 124.7C399.9 123.4 405.3 122.1 409.5 124.6C412.8 126.5 414.6 130.2 417 133.1C421.5 138.8 426.8 141.9 434 142.7C434.3 147.7 434 155.9 434 160.6L438.6 151.5C439 151 439.3 150.4 439.5 149.9L439.6 149.7C440.1 148.8 440.5 148 441.1 147.1C443.5 149.5 447.4 146.3 445.6 143.5C445.2 142.9 444.8 142.4 444.3 142C445.4 143.2 447.1 143.8 448.6 143.4C450.1 143 451.4 141.6 451.4 140C451.4 138.9 450.7 137.9 449.7 137.4C451.7 137.7 453.9 137.4 455.7 136.5C456.7 135.6 457.9 134.5 457.6 133.1Z" fill="#263238"/>
<path d="M394 118C394 118 393.3 118.4 392.2 119.4C391.2 120.4 390 122.2 389.3 124.8C389 126.1 388.7 127.5 388.6 129C388.5 130.5 388.5 132.2 388.5 133.9C388.5 135.6 388.5 137.5 388.3 139.3C388.2 140.2 388 141.2 387.7 142.1C387.4 143 387.1 144 386.4 144.8C385.8 145.4 384.8 145.7 384 145.4C383.2 145.2 382.5 144.7 382 144.1C381 142.8 380.8 141.2 380.7 139.8L381 139.9C380.4 141.1 379.7 142.3 378.8 143.3C377.9 144.2 376.7 144.8 375.5 144.9C374.9 144.9 374.3 144.8 373.8 144.5C373.3 144.2 372.9 143.8 372.7 143.3C372.5 142.8 372.4 142.3 372.4 141.8C372.5 141.3 372.7 140.9 373 140.5L373.2 140.7C371.8 142.1 370.4 142.8 369.5 143.2C369 143.4 368.6 143.5 368.4 143.6C368.1 143.7 368 143.7 368 143.7C368 143.7 368.1 143.6 368.4 143.6C368.7 143.5 369 143.4 369.5 143.2C370.4 142.8 371.8 142.1 373.1 140.7L373.3 140.9C372.7 141.5 372.6 142.5 373 143.4C373.2 143.8 373.5 144.2 374 144.5C374.4 144.8 375 144.9 375.5 144.8C376.6 144.8 377.7 144.2 378.6 143.3C379.5 142.4 380.1 141.2 380.8 140L381.1 139.5L381.2 140.1C381.4 141.5 381.6 143 382.5 144.2C382.9 144.8 383.6 145.2 384.3 145.4C385 145.6 385.8 145.4 386.3 144.9C387 144.2 387.3 143.3 387.5 142.4C387.8 141.5 387.9 140.5 388 139.6C388.2 137.7 388.2 135.9 388.2 134.2C388.2 132.5 388.2 130.8 388.3 129.3C388.4 127.8 388.7 126.3 389 125.1C389.7 122.5 391 120.7 392 119.7C393.2 118.3 394 118 394 118ZM444.3 137.3L444.2 137.4C444.1 137.5 443.9 137.6 443.8 137.7C443.6 137.8 443.4 138 443.1 138.1C442.8 138.2 442.5 138.4 442.1 138.6C440.5 139.2 438 139.8 434.9 139.4C431.9 139 428.2 137.7 425.1 135.1C421.9 132.5 419.2 128.8 417.1 124.7C416 122.6 415.2 120.5 414.2 118.5C413.2 116.5 412.2 114.7 410.8 113.2C409.5 111.7 407.9 110.6 406.2 110C405.4 109.7 404.5 109.6 403.7 109.6C402.9 109.6 402.1 109.7 401.4 109.9C399.9 110.3 398.7 111 397.8 111.8C396.9 112.6 396.2 113.4 395.8 114.1C395 115.6 394.8 116.6 394.8 116.5V116.3C394.8 116.2 394.9 116 394.9 115.8C395 115.4 395.2 114.7 395.6 114C396 113.3 396.7 112.4 397.6 111.6C398.5 110.8 399.8 110.1 401.3 109.6C402 109.4 402.9 109.3 403.7 109.3C404.5 109.3 405.4 109.4 406.3 109.7C408 110.3 409.7 111.4 411.1 113C412.5 114.5 413.6 116.4 414.6 118.4C415.6 120.4 416.4 122.5 417.5 124.6C419.6 128.7 422.3 132.4 425.4 134.9C428.5 137.5 432 138.8 435 139.2C438 139.6 440.5 139.1 442.1 138.5C443.5 137.8 444.3 137.2 444.3 137.3Z" fill="#455A64"/>
<path d="M446.3 130.1C446.3 130.1 446.1 130.3 445.7 130.5C445.3 130.7 444.7 131 443.9 131.3C443.1 131.6 442.1 131.8 441.1 132C440 132.2 438.8 132.3 437.5 132.3C436.2 132.3 435 132.1 433.9 131.8C432.8 131.5 431.9 131.2 431.1 130.9C430.3 130.6 429.7 130.3 429.3 130C428.9 129.8 428.7 129.6 428.7 129.6C428.7 129.5 429.6 130.1 431.2 130.7C432 131 432.9 131.3 434 131.5C435.1 131.7 436.3 131.9 437.5 131.9C438.8 131.9 440 131.8 441 131.7C442.1 131.5 443 131.3 443.8 131C445.3 130.5 446.2 130 446.3 130.1Z" fill="#455A64"/>
<path d="M417.8 232.8L387.8 204.7C387.8 204.7 373.5 195.2 354.9 202.6C333.8 211 324.9 222.8 300.2 251.5C299.3 252.5 298.6 253.4 297.9 254.1C296.3 255.8 297.8 265.7 297.8 267.9C297.8 279.6 298.7 291.5 301.9 302.8C304.4 311.6 309 320.1 316.2 325.8C319.3 328.2 322.3 331 325.3 333.3C327.5 335 326.8 335.2 329.8 333.6C331.9 332.5 334 331.3 336 330C344.1 325 351.6 319.1 358.3 312.3L419.3 250.6L417.8 232.8Z" fill="#FF7D66"/>
<path d="M413.1 257.1C413.2 257.1 414.1 256 415.4 254C416.7 252 418.3 249.1 419.9 245.9C421.5 242.6 422.7 239.6 423.5 237.3C424.3 235 424.7 233.6 424.6 233.6C424.5 233.6 424 234.9 423.1 237.1C422.2 239.3 420.9 242.3 419.3 245.6C417.7 248.9 416.1 251.7 414.9 253.8C413.8 255.8 413 257 413.1 257.1Z" fill="#263238"/>
<path opacity="0.3" d="M306.8 297.9C306.8 297.9 305 287.9 308.8 277.9C312.6 267.9 322.5 253.9 322.5 253.9L325.9 257.1L306.8 297.9Z" fill="black"/>
<path d="M394.5 225.7C387.7 212.8 373.5 207.7 359.5 211.5L347.1 219.6C347.1 219.6 306.2 283.7 306.9 296C307 298.4 308.3 300.9 309.2 303.1C310.9 307.1 312.9 311 314.8 314.9C319.7 324.5 324.9 334 330.2 343.4C333.8 349.9 337.5 356.3 341.2 362.8C341.4 363.1 341.6 363.5 341.8 363.8L359.7 359.2L337.7 301.7L349.3 287.2L371.1 260.4C371.1 260.4 386.7 252.3 394.2 240.4C396.5 236.6 396.9 230.3 394.5 225.7Z" fill="#FFBE9D"/>
<path d="M358.1 356.7L382.5 358.8C385.1 359 387.4 360.4 388.8 362.6L399.7 379.8C399.7 379.8 395.3 381.8 392.5 378.6C389.5 375.3 385 368.6 385 368.6L387.1 387.8C387.1 387.8 381.5 388.4 380.5 384.1C379.4 379.2 379.3 372.8 379.3 372.8L373.8 391C373.8 391 367.8 389 369.8 382.1C371 377.7 372.3 373.3 372.3 373.3L365.6 385.2C365.6 385.2 360.7 384.8 362 380.4C362.8 377.5 365.4 371.6 365.4 371.6C365.4 371.6 351.3 372.7 348.6 371.7C344.8 370.3 340.9 362.2 340.9 362.2L358.1 356.7Z" fill="#FFBE9D"/>
<path d="M379.7 208.2C379.7 208.2 400.2 219.2 397.9 234.6C395.7 250 378 258 378 258L355.1 282.5L319.1 251.3L351.8 210.6" fill="#FF7D66"/>
<path d="M352 210.6L351.8 210.8L351.3 211.3C350.9 211.8 350.3 212.5 349.5 213.5C347.9 215.4 345.6 218.2 342.8 221.7C337 228.8 328.8 239 319 251.1L318.8 251.3L319 251.5C329.5 260.6 341.7 271.3 354.8 282.6L355 282.8L355.2 283L355.4 282.8C363.5 274.1 371.2 265.8 378.3 258.3L378.2 258.4C382.6 256.2 386.4 253.5 389.6 250.4C392.8 247.3 395.4 243.8 396.8 240C397.1 239 397.5 238.1 397.7 237.2C397.9 236.2 398.1 235.3 398.2 234.4C398.4 232.5 398.3 230.7 397.9 228.9C397.2 225.4 395.5 222.6 393.8 220.2C390.2 215.5 386.4 212.7 383.9 210.9C382.6 210 381.6 209.4 380.8 208.9C380.5 208.7 380.2 208.6 380 208.4C379.8 208.3 379.7 208.3 379.7 208.3C379.7 208.3 379.8 208.4 380 208.5C380.2 208.6 380.5 208.8 380.8 209C381.5 209.4 382.5 210.1 383.8 211C386.3 212.9 390.1 215.7 393.5 220.4C395.2 222.7 396.8 225.6 397.5 228.9C397.8 230.6 398 232.4 397.7 234.2C397.6 235.1 397.3 236 397.2 237C397 237.9 396.6 238.8 396.3 239.8C393.3 247.2 386.4 253.6 378 257.9H377.9C370.8 265.5 363.1 273.8 355 282.4H355.5L355.3 282.2C342.3 270.9 330 260.3 319.5 251.1V251.5C329.2 239.3 337.4 229.2 343.1 222C345.9 218.4 348.2 215.6 349.7 213.7C350.4 212.8 351 212 351.4 211.5C351.6 211.3 351.7 211.1 351.8 210.9C351.9 210.7 352 210.6 352 210.6Z" fill="#263238"/>
<path d="M377.2 361.4C377.2 361.5 378 361.5 379.2 361.8C380.4 362.1 382 362.9 383.2 364.3C384.4 365.7 384.9 367.5 385 368.7C385.1 369.9 385 370.7 385.1 370.7C385.2 370.7 385.5 370 385.5 368.6C385.5 367.3 385.1 365.4 383.8 363.8C382.5 362.2 380.7 361.5 379.4 361.2C378 361.2 377.1 361.4 377.2 361.4ZM374.9 364.3C374.9 364.4 375.4 364.7 376.2 365.3C376.6 365.6 377.1 366 377.6 366.4C378.1 366.8 378.6 367.3 378.8 368C379.3 369.4 379.2 370.8 379.1 371.8C379 372.8 378.8 373.4 378.9 373.4C379 373.4 379.3 372.9 379.5 371.8C379.7 370.8 379.9 369.3 379.4 367.7C379.1 366.9 378.5 366.3 377.9 365.9C377.4 365.5 376.8 365.1 376.4 364.9C375.6 364.4 374.9 364.2 374.9 364.3ZM364.7 366.6C364.7 366.7 365.4 366.9 366.7 367C367.9 367.2 369.7 367.3 370.8 368.7C371.9 370.1 372.1 371.9 371.9 373C371.7 374.2 371.3 374.8 371.4 374.9C371.5 374.9 372 374.3 372.4 373.1C372.8 371.9 372.6 369.9 371.4 368.3C370.8 367.5 369.9 367 369 366.8C368.2 366.6 367.4 366.6 366.8 366.5C365.5 366.6 364.7 366.5 364.7 366.6ZM345.7 361.4C345.8 361.6 348.7 360.6 352.2 359.2C354 358.5 355.6 357.9 356.7 357.4C357.8 356.9 358.6 356.6 358.5 356.5C358.4 356.2 355.5 357.2 351.9 358.6C348.5 360 345.7 361.3 345.7 361.4Z" fill="#EB996E"/>
<path d="M248.6 17.8V22.6H230.8V0.5H248.2V5.3H237V9H246.9V13.7H237V17.8H248.6ZM261.8 16.7H258.4V22.6H252.1V0.5H262.2C268.3 0.5 272.1 3.6 272.1 8.7C272.1 12 270.5 14.4 267.8 15.7L272.6 22.7H265.9L261.8 16.7ZM261.8 5.4H258.3V11.9H261.8C264.4 11.9 265.7 10.7 265.7 8.7C265.7 6.6 264.4 5.4 261.8 5.4ZM285.2 16.7H281.8V22.6H275.5V0.5H285.6C291.7 0.5 295.5 3.6 295.5 8.7C295.5 12 293.9 14.4 291.2 15.7L296 22.7H289.3L285.2 16.7ZM285.3 5.4H281.8V11.9H285.3C287.9 11.9 289.2 10.7 289.2 8.7C289.2 6.6 287.9 5.4 285.3 5.4ZM297.8 11.5C297.8 4.8 303 0 310.1 0C317.2 0 322.4 4.9 322.4 11.5C322.4 18.2 317.2 23 310.1 23C303 23.1 297.8 18.2 297.8 11.5ZM316.1 11.5C316.1 7.7 313.5 5.2 310.1 5.2C306.7 5.2 304.1 7.7 304.1 11.5C304.1 15.3 306.7 17.8 310.1 17.8C313.5 17.9 316.1 15.4 316.1 11.5ZM335.4 16.7H332V22.6H325.7V0.5H335.8C341.9 0.5 345.7 3.6 345.7 8.7C345.7 12 344.1 14.4 341.4 15.7L346.2 22.7H339.5L335.4 16.7ZM335.5 5.4H332V11.9H335.5C338.1 11.9 339.4 10.7 339.4 8.7C339.4 6.6 338.1 5.4 335.5 5.4ZM387.6 8.7C387.6 13.7 383.8 16.9 377.7 16.9H373.8V22.7H367.5V0.5H377.6C383.8 0.5 387.6 3.6 387.6 8.7ZM381.3 8.7C381.3 6.6 380 5.4 377.4 5.4H373.9V11.9H377.4C380 11.9 381.3 10.7 381.3 8.7ZM404.4 18.3H395L393.3 22.6H386.9L396.7 0.400002H402.9L412.7 22.6H406.2L404.4 18.3ZM402.6 13.7L399.7 6.6L396.8 13.7H402.6ZM429 11.1H434.5V20.3C431.9 22.1 428.4 23.1 425.2 23.1C418.1 23.1 413 18.3 413 11.6C413 4.9 418.2 0.0999985 425.4 0.0999985C429.6 0.0999985 432.9 1.5 435.1 4.2L431.1 7.8C429.6 6.1 427.8 5.3 425.7 5.3C421.9 5.3 419.4 7.8 419.4 11.6C419.4 15.3 421.9 17.9 425.7 17.9C426.9 17.9 428 17.7 429.1 17.2V11.1H429ZM456.3 17.8V22.6H438.5V0.5H455.9V5.3H444.7V9H454.6V13.7H444.7V17.8H456.3Z" fill="#E8505B"/>
</svg>
